<?xml-stylesheet href="https://s3.amazonaws.com/maker.works.boards/css/blackpcb.css" type="text/css"?><svg xmlns="http://www.w3.org/2000/svg" version="1.1" xmlns:xlink="http://www.w3.org/1999/xlink" stroke-width="0" stroke-linecap="round" stroke-linejoin="round" width="1.1812in" height="1.1812in" id="pcb_bottom" viewBox="7.5 7.5 1181.2 1181.2"><defs><circle cx="0" cy="0" r="41.5" id="tool-T10-pad-1000"/><circle cx="0" cy="0" r="41.5" id="tool-T11-pad-1001"/><circle cx="0" cy="0" r="41.5" id="tool-T12-pad-1002"/><circle cx="0" cy="0" r="41.5" id="tool-T13-pad-1003"/><circle cx="0" cy="0" r="41.5" id="tool-T14-pad-1004"/><circle cx="0" cy="0" r="41.5" id="tool-T15-pad-1005"/><circle cx="0" cy="0" r="41.5" id="tool-T16-pad-1006"/><circle cx="0" cy="0" r="41.5" id="tool-T17-pad-1007"/><circle cx="0" cy="0" r="41.5" id="tool-T18-pad-1008"/><circle cx="0" cy="0" r="41.5" id="tool-T19-pad-1009"/><circle cx="0" cy="0" r="41.5" id="tool-T20-pad-1010"/><circle cx="0" cy="0" r="41.5" id="tool-T21-pad-1011"/><circle cx="0" cy="0" r="41.5" id="tool-T22-pad-1012"/><circle cx="0" cy="0" r="21.5" id="tool-T23-pad-1013"/><rect x="-16.1555" y="-32.888" width="32.311" height="65.776" transform="rotate(165)" id="tool-D10-pad-1014"/><rect x="-19.685" y="-31.496" width="39.37" height="62.992" transform="rotate(210)" id="tool-D11-pad-1015"/><rect x="-29.5275" y="-10.827" width="59.055" height="21.654" transform="rotate(225)" id="tool-D12-pad-1016"/><rect x="-10.827" y="-29.5275" width="21.654" height="59.055" transform="rotate(225)" id="tool-D13-pad-1017"/><rect x="-16.1555" y="-32.888" width="32.311" height="65.776" transform="rotate(315)" id="tool-D14-pad-1018"/><rect x="-19.685" y="-31.496" width="39.37" height="62.992" transform="rotate(59)" id="tool-D15-pad-1019"/><rect x="-19.685" y="-31.496" width="39.37" height="62.992" transform="rotate(180)" id="tool-D16-pad-1020"/><rect x="-19.685" y="-31.496" width="39.37" height="62.992" transform="rotate(270)" id="tool-D17-pad-1021"/><rect x="-16.1555" y="-32.888" width="32.311" height="65.776" transform="rotate(104)" id="tool-D18-pad-1022"/><rect x="-16.1555" y="-32.888" width="32.311" height="65.776" transform="rotate(14)" id="tool-D19-pad-1023"/><rect x="-16.1555" y="-32.888" width="32.311" height="65.776" transform="rotate(194)" id="tool-D20-pad-1024"/><rect x="-19.685" y="-31.496" width="39.37" height="62.992" transform="rotate(239)" id="tool-D21-pad-1025"/><rect x="-19.685" y="-31.496" width="39.37" height="62.992" transform="rotate(329)" id="tool-D22-pad-1026"/><rect x="-19.685" y="-31.496" width="39.37" height="62.992" transform="rotate(120)" id="tool-D23-pad-1027"/><rect x="-16.1555" y="-32.888" width="32.311" height="65.776" transform="rotate(45)" id="tool-D24-pad-1028"/><rect x="-19.7" y="-31.5" width="39.4" height="63" id="tool-D25-pad-1029"/><rect x="-16.1555" y="-32.888" width="32.311" height="65.776" transform="rotate(255)" id="tool-D26-pad-1030"/><rect x="-19.685" y="-31.496" width="39.37" height="62.992" transform="rotate(300)" id="tool-D27-pad-1031"/><rect x="-19.685" y="-31.496" width="39.37" height="62.992" transform="rotate(149)" id="tool-D28-pad-1032"/><rect x="-19.685" y="-31.496" width="39.37" height="62.992" transform="rotate(90)" id="tool-D29-pad-1033"/><rect x="-16.1555" y="-32.888" width="32.311" height="65.776" transform="rotate(75)" id="tool-D30-pad-1034"/><rect x="-16.1555" y="-32.888" width="32.311" height="65.776" transform="rotate(135)" id="tool-D31-pad-1035"/><rect x="-19.685" y="-31.496" width="39.37" height="62.992" transform="rotate(30)" id="tool-D32-pad-1036"/><rect x="-16.1555" y="-32.888" width="32.311" height="65.776" transform="rotate(284)" id="tool-D35-pad-1039"/><rect x="-16.1555" y="-32.888" width="32.311" height="65.776" transform="rotate(345)" id="tool-D36-pad-1040"/><rect x="-16.1555" y="-32.888" width="32.311" height="65.776" transform="rotate(225)" id="tool-D37-pad-1041"/><circle cx="0" cy="0" r="9.85" id="tool-D11-pad-1043"/><circle cx="0" cy="0" r="9.85" id="tool-D12-pad-1044"/><circle cx="0" cy="0" r="19.7" id="tool-D13-pad-1045"/><circle cx="0" cy="0" r="9.85" id="tool-D14-pad-1046"/><circle cx="0" cy="0" r="9.85" id="tool-D15-pad-1047"/><circle cx="0" cy="0" r="9.85" id="tool-D16-pad-1048"/><circle cx="0" cy="0" r="9.85" id="tool-D17-pad-1049"/><circle cx="0" cy="0" r="9.85" id="tool-D18-pad-1050"/><circle cx="0" cy="0" r="9.85" id="tool-D19-pad-1051"/><circle cx="0" cy="0" r="9.85" id="tool-D20-pad-1052"/><circle cx="0" cy="0" r="9.85" id="tool-D21-pad-1053"/><circle cx="0" cy="0" r="9.85" id="tool-D22-pad-1054"/><circle cx="0" cy="0" r="9.85" id="tool-D23-pad-1055"/><circle cx="0" cy="0" r="9.85" id="tool-D24-pad-1056"/><rect x="-16.1555" y="-32.888" width="32.311" height="65.776" transform="rotate(165)" id="tool-D10-pad-1057"/><rect x="-19.685" y="-31.496" width="39.37" height="62.992" transform="rotate(210)" id="tool-D11-pad-1058"/><rect x="-29.5275" y="-10.827" width="59.055" height="21.654" transform="rotate(225)" id="tool-D12-pad-1059"/><rect x="-10.827" y="-29.5275" width="21.654" height="59.055" transform="rotate(225)" id="tool-D13-pad-1060"/><rect x="-16.1555" y="-32.888" width="32.311" height="65.776" transform="rotate(315)" id="tool-D14-pad-1061"/><rect x="-19.685" y="-31.496" width="39.37" height="62.992" transform="rotate(59)" id="tool-D15-pad-1062"/><rect x="-19.685" y="-31.496" width="39.37" height="62.992" transform="rotate(180)" id="tool-D16-pad-1063"/><rect x="-19.685" y="-31.496" width="39.37" height="62.992" transform="rotate(270)" id="tool-D17-pad-1064"/><rect x="-16.1555" y="-32.888" width="32.311" height="65.776" transform="rotate(104)" id="tool-D18-pad-1065"/><rect x="-16.1555" y="-32.888" width="32.311" height="65.776" transform="rotate(14)" id="tool-D19-pad-1066"/><rect x="-16.1555" y="-32.888" width="32.311" height="65.776" transform="rotate(194)" id="tool-D20-pad-1067"/><rect x="-19.685" y="-31.496" width="39.37" height="62.992" transform="rotate(239)" id="tool-D21-pad-1068"/><rect x="-19.685" y="-31.496" width="39.37" height="62.992" transform="rotate(329)" id="tool-D22-pad-1069"/><rect x="-19.685" y="-31.496" width="39.37" height="62.992" transform="rotate(120)" id="tool-D23-pad-1070"/><rect x="-16.1555" y="-32.888" width="32.311" height="65.776" transform="rotate(45)" id="tool-D24-pad-1071"/><rect x="-19.7" y="-31.5" width="39.4" height="63" id="tool-D25-pad-1072"/><rect x="-16.1555" y="-32.888" width="32.311" height="65.776" transform="rotate(255)" id="tool-D26-pad-1073"/><rect x="-19.685" y="-31.496" width="39.37" height="62.992" transform="rotate(300)" id="tool-D27-pad-1074"/><rect x="-19.685" y="-31.496" width="39.37" height="62.992" transform="rotate(149)" id="tool-D28-pad-1075"/><rect x="-19.685" y="-31.496" width="39.37" height="62.992" transform="rotate(90)" id="tool-D29-pad-1076"/><rect x="-16.1555" y="-32.888" width="32.311" height="65.776" transform="rotate(75)" id="tool-D30-pad-1077"/><rect x="-16.1555" y="-32.888" width="32.311" height="65.776" transform="rotate(135)" id="tool-D31-pad-1078"/><rect x="-19.685" y="-31.496" width="39.37" height="62.992" transform="rotate(30)" id="tool-D32-pad-1079"/><rect x="-16.1555" y="-32.888" width="32.311" height="65.776" transform="rotate(284)" id="tool-D35-pad-1082"/><rect x="-16.1555" y="-32.888" width="32.311" height="65.776" transform="rotate(345)" id="tool-D36-pad-1083"/><rect x="-16.1555" y="-32.888" width="32.311" height="65.776" transform="rotate(225)" id="tool-D37-pad-1084"/><g id="pcb_bottom-cu" fill="currentColor" stroke="currentColor"><use x="1114.3" y="459.8" xlink:href="#tool-D10-pad-1014"/><use x="994.6" y="491.9" xlink:href="#tool-D10-pad-1014"/><use x="250.3" y="397.3" xlink:href="#tool-D11-pad-1015"/><use x="127.6" y="326.4" xlink:href="#tool-D11-pad-1015"/><use x="637.1" y="793" xlink:href="#tool-D12-pad-1016"/><use x="659.4" y="770.7" xlink:href="#tool-D12-pad-1016"/><use x="681.6" y="748.4" xlink:href="#tool-D12-pad-1016"/><use x="703.9" y="726.2" xlink:href="#tool-D12-pad-1016"/><use x="726.2" y="703.9" xlink:href="#tool-D12-pad-1016"/><use x="748.4" y="681.6" xlink:href="#tool-D12-pad-1016"/><use x="770.7" y="659.4" xlink:href="#tool-D12-pad-1016"/><use x="793" y="637.1" xlink:href="#tool-D12-pad-1016"/><use x="559.1" y="403.2" xlink:href="#tool-D12-pad-1016"/><use x="536.8" y="425.5" xlink:href="#tool-D12-pad-1016"/><use x="514.6" y="447.8" xlink:href="#tool-D12-pad-1016"/><use x="492.3" y="470" xlink:href="#tool-D12-pad-1016"/><use x="470" y="492.3" xlink:href="#tool-D12-pad-1016"/><use x="447.8" y="514.6" xlink:href="#tool-D12-pad-1016"/><use x="425.5" y="536.8" xlink:href="#tool-D12-pad-1016"/><use x="403.2" y="559.1" xlink:href="#tool-D12-pad-1016"/><use x="793" y="559.1" xlink:href="#tool-D13-pad-1017"/><use x="770.7" y="536.8" xlink:href="#tool-D13-pad-1017"/><use x="748.4" y="514.6" xlink:href="#tool-D13-pad-1017"/><use x="726.2" y="492.3" xlink:href="#tool-D13-pad-1017"/><use x="703.9" y="470" xlink:href="#tool-D13-pad-1017"/><use x="681.6" y="447.8" xlink:href="#tool-D13-pad-1017"/><use x="659.4" y="425.5" xlink:href="#tool-D13-pad-1017"/><use x="637.1" y="403.2" xlink:href="#tool-D13-pad-1017"/><use x="403.2" y="637.1" xlink:href="#tool-D13-pad-1017"/><use x="425.5" y="659.4" xlink:href="#tool-D13-pad-1017"/><use x="447.8" y="681.6" xlink:href="#tool-D13-pad-1017"/><use x="470" y="703.9" xlink:href="#tool-D13-pad-1017"/><use x="492.3" y="726.2" xlink:href="#tool-D13-pad-1017"/><use x="514.6" y="748.4" xlink:href="#tool-D13-pad-1017"/><use x="536.8" y="770.7" xlink:href="#tool-D13-pad-1017"/><use x="559.1" y="793" xlink:href="#tool-D13-pad-1017"/><use x="220.2" y="976" xlink:href="#tool-D14-pad-1018"/><use x="307.9" y="888.3" xlink:href="#tool-D14-pad-1018"/><use x="798.9" y="945.9" xlink:href="#tool-D15-pad-1019"/><use x="869.8" y="1068.6" xlink:href="#tool-D15-pad-1019"/><use x="196.5" y="598.1" xlink:href="#tool-D16-pad-1020"/><use x="54.8" y="598.1" xlink:href="#tool-D16-pad-1020"/><use x="598.1" y="196.5" xlink:href="#tool-D17-pad-1021"/><use x="598.1" y="54.8" xlink:href="#tool-D17-pad-1021"/><use x="736.4" y="81.9" xlink:href="#tool-D18-pad-1022"/><use x="704.3" y="201.6" xlink:href="#tool-D18-pad-1022"/><use x="81.9" y="459.8" xlink:href="#tool-D19-pad-1023"/><use x="201.6" y="491.9" xlink:href="#tool-D19-pad-1023"/><use x="1114.3" y="736.4" xlink:href="#tool-D20-pad-1024"/><use x="994.6" y="704.3" xlink:href="#tool-D20-pad-1024"/><use x="397.3" y="250.3" xlink:href="#tool-D21-pad-1025"/><use x="326.4" y="127.6" xlink:href="#tool-D21-pad-1025"/><use x="945.9" y="397.3" xlink:href="#tool-D22-pad-1026"/><use x="1068.6" y="326.4" xlink:href="#tool-D22-pad-1026"/><use x="397.3" y="945.9" xlink:href="#tool-D23-pad-1027"/><use x="326.4" y="1068.6" xlink:href="#tool-D23-pad-1027"/><use x="220.2" y="220.2" xlink:href="#tool-D24-pad-1028"/><use x="307.9" y="307.9" xlink:href="#tool-D24-pad-1028"/><use x="999.7" y="598.1" xlink:href="#tool-D25-pad-1029"/><use x="1141.4" y="598.1" xlink:href="#tool-D25-pad-1029"/><use x="736.4" y="1114.3" xlink:href="#tool-D26-pad-1030"/><use x="704.3" y="994.6" xlink:href="#tool-D26-pad-1030"/><use x="798.9" y="250.3" xlink:href="#tool-D27-pad-1031"/><use x="869.8" y="127.6" xlink:href="#tool-D27-pad-1031"/><use x="250.3" y="798.9" xlink:href="#tool-D28-pad-1032"/><use x="127.6" y="869.8" xlink:href="#tool-D28-pad-1032"/><use x="598.1" y="999.7" xlink:href="#tool-D29-pad-1033"/><use x="598.1" y="1141.4" xlink:href="#tool-D29-pad-1033"/><use x="459.8" y="81.9" xlink:href="#tool-D30-pad-1034"/><use x="491.9" y="201.6" xlink:href="#tool-D30-pad-1034"/><use x="976" y="220.2" xlink:href="#tool-D31-pad-1035"/><use x="888.3" y="307.9" xlink:href="#tool-D31-pad-1035"/><use x="945.9" y="798.9" xlink:href="#tool-D32-pad-1036"/><use x="1068.6" y="869.8" xlink:href="#tool-D32-pad-1036"/><use x="459.8" y="1114.3" xlink:href="#tool-D35-pad-1039"/><use x="491.9" y="994.6" xlink:href="#tool-D35-pad-1039"/><use x="81.9" y="736.4" xlink:href="#tool-D36-pad-1040"/><use x="201.6" y="704.3" xlink:href="#tool-D36-pad-1040"/><use x="976" y="976" xlink:href="#tool-D37-pad-1041"/><use x="888.3" y="888.3" xlink:href="#tool-D37-pad-1041"/></g><mask id="pcb_bottom_mech-mask" fill="#fff" stroke="#fff" fill-rule="evenodd"><path stroke-width="0" d="M 7.5 7.5 L 7.5 1188.7 L 1188.7 1188.7 L 1188.7 7.5 Z"/><g id="pcb_bottom-drl" fill="#000" stroke="#000"><use x="1109.9" y="1109.9" xlink:href="#tool-T10-pad-1000"/><use x="86.3" y="1109.9" xlink:href="#tool-T10-pad-1000"/><use x="86.3" y="86.3" xlink:href="#tool-T10-pad-1000"/><use x="1109.9" y="86.3" xlink:href="#tool-T10-pad-1000"/><use x="189" y="361.9" xlink:href="#tool-T11-pad-1001"/><use x="834.3" y="1007.2" xlink:href="#tool-T12-pad-1002"/><use x="125.7" y="598.1" xlink:href="#tool-T13-pad-1003"/><use x="598.1" y="125.7" xlink:href="#tool-T14-pad-1004"/><use x="361.9" y="189" xlink:href="#tool-T15-pad-1005"/><use x="1007.2" y="361.9" xlink:href="#tool-T16-pad-1006"/><use x="361.9" y="1007.2" xlink:href="#tool-T17-pad-1007"/><use x="1070.5" y="598.1" xlink:href="#tool-T18-pad-1008"/><use x="834.3" y="189" xlink:href="#tool-T19-pad-1009"/><use x="189" y="834.3" xlink:href="#tool-T20-pad-1010"/><use x="598.1" y="1070.5" xlink:href="#tool-T21-pad-1011"/><use x="1007.2" y="834.3" xlink:href="#tool-T22-pad-1012"/><use x="1385.5" y="848.1" xlink:href="#tool-T23-pad-1013"/><use x="1385.5" y="748.1" xlink:href="#tool-T23-pad-1013"/><use x="1385.5" y="648.1" xlink:href="#tool-T23-pad-1013"/><use x="1385.5" y="548.1" xlink:href="#tool-T23-pad-1013"/><use x="1385.5" y="448.1" xlink:href="#tool-T23-pad-1013"/><use x="1385.5" y="348.1" xlink:href="#tool-T23-pad-1013"/></g></mask></defs><g mask="url(#pcb_bottom_mech-mask)" transform="translate(1196.2,1196.2) scale(-1,-1)"><rect x="7.5" y="7.5" width="1181.2" height="1181.2" fill="currentColor" class="pcb_board-fr4"/><use class="pcb_board-cu" xlink:href="#pcb_bottom-cu"/><g><defs><g id="pcb_bottom-sm" fill="currentColor" stroke="currentColor"><use x="1114.3" y="459.8" xlink:href="#tool-D10-pad-1057"/><use x="994.6" y="491.9" xlink:href="#tool-D10-pad-1057"/><use x="250.3" y="397.3" xlink:href="#tool-D11-pad-1058"/><use x="127.6" y="326.4" xlink:href="#tool-D11-pad-1058"/><use x="637.1" y="793" xlink:href="#tool-D12-pad-1059"/><use x="659.4" y="770.7" xlink:href="#tool-D12-pad-1059"/><use x="681.6" y="748.4" xlink:href="#tool-D12-pad-1059"/><use x="703.9" y="726.2" xlink:href="#tool-D12-pad-1059"/><use x="726.2" y="703.9" xlink:href="#tool-D12-pad-1059"/><use x="748.4" y="681.6" xlink:href="#tool-D12-pad-1059"/><use x="770.7" y="659.4" xlink:href="#tool-D12-pad-1059"/><use x="793" y="637.1" xlink:href="#tool-D12-pad-1059"/><use x="559.1" y="403.2" xlink:href="#tool-D12-pad-1059"/><use x="536.8" y="425.5" xlink:href="#tool-D12-pad-1059"/><use x="514.6" y="447.8" xlink:href="#tool-D12-pad-1059"/><use x="492.3" y="470" xlink:href="#tool-D12-pad-1059"/><use x="470" y="492.3" xlink:href="#tool-D12-pad-1059"/><use x="447.8" y="514.6" xlink:href="#tool-D12-pad-1059"/><use x="425.5" y="536.8" xlink:href="#tool-D12-pad-1059"/><use x="403.2" y="559.1" xlink:href="#tool-D12-pad-1059"/><use x="793" y="559.1" xlink:href="#tool-D13-pad-1060"/><use x="770.7" y="536.8" xlink:href="#tool-D13-pad-1060"/><use x="748.4" y="514.6" xlink:href="#tool-D13-pad-1060"/><use x="726.2" y="492.3" xlink:href="#tool-D13-pad-1060"/><use x="703.9" y="470" xlink:href="#tool-D13-pad-1060"/><use x="681.6" y="447.8" xlink:href="#tool-D13-pad-1060"/><use x="659.4" y="425.5" xlink:href="#tool-D13-pad-1060"/><use x="637.1" y="403.2" xlink:href="#tool-D13-pad-1060"/><use x="403.2" y="637.1" xlink:href="#tool-D13-pad-1060"/><use x="425.5" y="659.4" xlink:href="#tool-D13-pad-1060"/><use x="447.8" y="681.6" xlink:href="#tool-D13-pad-1060"/><use x="470" y="703.9" xlink:href="#tool-D13-pad-1060"/><use x="492.3" y="726.2" xlink:href="#tool-D13-pad-1060"/><use x="514.6" y="748.4" xlink:href="#tool-D13-pad-1060"/><use x="536.8" y="770.7" xlink:href="#tool-D13-pad-1060"/><use x="559.1" y="793" xlink:href="#tool-D13-pad-1060"/><use x="220.2" y="976" xlink:href="#tool-D14-pad-1061"/><use x="307.9" y="888.3" xlink:href="#tool-D14-pad-1061"/><use x="798.9" y="945.9" xlink:href="#tool-D15-pad-1062"/><use x="869.8" y="1068.6" xlink:href="#tool-D15-pad-1062"/><use x="196.5" y="598.1" xlink:href="#tool-D16-pad-1063"/><use x="54.8" y="598.1" xlink:href="#tool-D16-pad-1063"/><use x="598.1" y="196.5" xlink:href="#tool-D17-pad-1064"/><use x="598.1" y="54.8" xlink:href="#tool-D17-pad-1064"/><use x="736.4" y="81.9" xlink:href="#tool-D18-pad-1065"/><use x="704.3" y="201.6" xlink:href="#tool-D18-pad-1065"/><use x="81.9" y="459.8" xlink:href="#tool-D19-pad-1066"/><use x="201.6" y="491.9" xlink:href="#tool-D19-pad-1066"/><use x="1114.3" y="736.4" xlink:href="#tool-D20-pad-1067"/><use x="994.6" y="704.3" xlink:href="#tool-D20-pad-1067"/><use x="397.3" y="250.3" xlink:href="#tool-D21-pad-1068"/><use x="326.4" y="127.6" xlink:href="#tool-D21-pad-1068"/><use x="945.9" y="397.3" xlink:href="#tool-D22-pad-1069"/><use x="1068.6" y="326.4" xlink:href="#tool-D22-pad-1069"/><use x="397.3" y="945.9" xlink:href="#tool-D23-pad-1070"/><use x="326.4" y="1068.6" xlink:href="#tool-D23-pad-1070"/><use x="220.2" y="220.2" xlink:href="#tool-D24-pad-1071"/><use x="307.9" y="307.9" xlink:href="#tool-D24-pad-1071"/><use x="999.7" y="598.1" xlink:href="#tool-D25-pad-1072"/><use x="1141.4" y="598.1" xlink:href="#tool-D25-pad-1072"/><use x="736.4" y="1114.3" xlink:href="#tool-D26-pad-1073"/><use x="704.3" y="994.6" xlink:href="#tool-D26-pad-1073"/><use x="798.9" y="250.3" xlink:href="#tool-D27-pad-1074"/><use x="869.8" y="127.6" xlink:href="#tool-D27-pad-1074"/><use x="250.3" y="798.9" xlink:href="#tool-D28-pad-1075"/><use x="127.6" y="869.8" xlink:href="#tool-D28-pad-1075"/><use x="598.1" y="999.7" xlink:href="#tool-D29-pad-1076"/><use x="598.1" y="1141.4" xlink:href="#tool-D29-pad-1076"/><use x="459.8" y="81.9" xlink:href="#tool-D30-pad-1077"/><use x="491.9" y="201.6" xlink:href="#tool-D30-pad-1077"/><use x="976" y="220.2" xlink:href="#tool-D31-pad-1078"/><use x="888.3" y="307.9" xlink:href="#tool-D31-pad-1078"/><use x="945.9" y="798.9" xlink:href="#tool-D32-pad-1079"/><use x="1068.6" y="869.8" xlink:href="#tool-D32-pad-1079"/><use x="459.8" y="1114.3" xlink:href="#tool-D35-pad-1082"/><use x="491.9" y="994.6" xlink:href="#tool-D35-pad-1082"/><use x="81.9" y="736.4" xlink:href="#tool-D36-pad-1083"/><use x="201.6" y="704.3" xlink:href="#tool-D36-pad-1083"/><use x="976" y="976" xlink:href="#tool-D37-pad-1084"/><use x="888.3" y="888.3" xlink:href="#tool-D37-pad-1084"/></g><mask id="pcb_bottom-sm_mask" color="#000"><rect x="7.5" y="7.5" width="1181.2" height="1181.2" fill="#fff"/><use xlink:href="#pcb_bottom-sm"/></mask><mask id="pcb_bottom-cu_finish-mask" color="#fff"><use xlink:href="#pcb_bottom-cu"/></mask></defs><g mask="url(#pcb_bottom-sm_mask)"><rect x="7.5" y="7.5" width="1181.2" height="1181.2" fill="currentColor" class="pcb_board-sm"/><g id="pcb_bottom-ss" class="pcb_board-ss" fill="currentColor" stroke="currentColor"><path stroke-width="5.9" fill="none" d="M 1079.2 436.6 L 1013.4 454.2 M 1095.5 497.4 L 1029.7 515.1"/><path d="M 1159.3 449.1 L 1152 421.9 L 1164.1 418.7 L 1165.8 418.3 L 1167.3 418 L 1168.7 417.9 L 1169.8 417.9 L 1170.8 418.1 L 1171.8 418.5 L 1172.7 419 L 1173.5 419.7 L 1174.3 420.5 L 1174.9 421.4 L 1175.4 422.4 L 1175.7 423.5 L 1176 424.9 L 1176 426.3 L 1175.7 427.6 L 1175.2 428.9 L 1174.4 430.1 L 1173.3 431.2 L 1171.8 432.1 L 1170.9 432.5 L 1169.6 429.8 L 1170.3 429.3 L 1170.9 428.8 L 1171.3 428.3 L 1171.7 427.8 L 1172 427.1 L 1172.2 426.5 L 1172.2 425.8 L 1172.2 425.1 L 1172 424.5 L 1171.7 423.6 L 1171.2 422.8 L 1170.6 422.2 L 1169.8 421.7 L 1168.8 421.4 L 1167.7 421.2 L 1166.4 421.3 L 1165 421.6 L 1156.4 424 L 1158.8 432.9 L 1158.8 432.9 L 1166.6 430.9 L 1167.7 430.5 L 1168.7 430.1 L 1169.6 429.8 L 1170.9 432.5 L 1170.1 433 L 1170.9 433.1 L 1171.5 433.3 L 1172.1 433.5 L 1172.6 433.7 L 1173.6 434.3 L 1174.6 435 L 1175.6 435.7 L 1176.6 436.6 L 1183.3 442.7 L 1178.8 443.9 L 1173.7 439.2 L 1172.6 438.3 L 1171.6 437.4 L 1170.8 436.7 L 1170 436.2 L 1169.4 435.7 L 1168.8 435.3 L 1168.2 435 L 1167.7 434.8 L 1167.2 434.7 L 1166.8 434.6 L 1166.3 434.6 L 1165.9 434.6 L 1165.5 434.6 L 1165 434.7 L 1164.5 434.8 L 1163.8 435 L 1159.7 436.1 L 1162.9 448.2 L 1159.3 449.1 L 1159.3 449.1 Z"/><path d="M 1181.8 428.7 L 1181.2 426.4 L 1180.8 424.3 L 1180.7 422.4 L 1180.7 420.7 L 1180.9 419.2 L 1181.2 417.7 L 1181.7 416.5 L 1182.4 415.3 L 1183.3 414.4 L 1184.3 413.6 L 1185.5 412.9 L 1186.9 412.4 L 1188 412.2 L 1189 412.1 L 1190 412.1 L 1191 412.3 L 1191.9 412.5 L 1192.8 412.9 L 1193.6 413.5 L 1194.4 414.1 L 1195.1 414.8 L 1195.9 415.7 L 1196.2 416.2 M 1196.5 416.6 M 1196.2 439.5 L 1195.7 439.8 L 1194.4 440.2 L 1194.1 440.3 L 1193.6 437.5 L 1194.7 437 L 1195.6 436.4 L 1196.2 435.5 M 1196.3 435.4 M 1196.2 425.3 L 1196.1 424.9 L 1195.1 421.8 L 1194.2 419.4 L 1193.2 417.6 L 1192.1 416.4 L 1191 415.6 L 1189.9 415.2 L 1188.8 415.1 L 1187.6 415.2 L 1186.6 415.6 L 1185.7 416.2 L 1185 417.1 L 1184.4 418.1 L 1184.1 419.9 L 1184.1 422 L 1184.5 424.7 L 1185.2 427.8 L 1185.2 427.8 L 1186.1 430.9 L 1187.1 433.3 L 1188.1 435.1 L 1189.2 436.3 L 1190.2 437 L 1191.3 437.5 L 1192.5 437.6 L 1193.6 437.5 L 1194.1 440.3 L 1192.4 440.5 L 1190.7 440.5 L 1189 440 L 1187.4 439.1 L 1185.7 437.4 L 1184.2 435.1 L 1182.9 432.2 L 1181.8 428.7 L 1181.8 428.7 Z"/><use x="277.9" y="413.3" xlink:href="#tool-D11-pad-1043"/><path d="M 110 302.7 L 96 327.1 L 87.6 322.3 L 89.3 319.4 L 94.4 322.4 L 105.1 303.7 L 105.1 303.7 L 100 300.7 L 98.8 300.1 L 97.7 299.6 L 96.8 299.2 L 95.9 299 L 95.1 298.8 L 94.4 298.8 L 93.7 298.8 L 93 299 L 92.1 299.3 L 91.2 299.7 L 90.3 300.3 L 89.4 301 L 88.5 301.9 L 87.7 302.9 L 86.8 304 L 86.1 305.3 L 85.1 307.2 L 84.4 308.9 L 84 310.5 L 83.9 312 L 84 313.3 L 84.3 314.5 L 84.8 315.5 L 85.4 316.5 L 86 317.1 L 86.8 317.8 L 87.9 318.6 L 89.3 319.4 L 87.6 322.3 L 87.5 322.2 L 86.2 321.4 L 85.1 320.7 L 84.2 320 L 83.4 319.4 L 82.5 318.5 L 81.8 317.6 L 81.3 316.6 L 80.8 315.6 L 80.4 314.2 L 80.2 312.7 L 80.2 311.2 L 80.3 309.7 L 80.7 308.2 L 81.2 306.6 L 81.9 305 L 82.7 303.4 L 83.6 302 L 84.4 300.9 L 85.3 299.8 L 86.2 298.8 L 87.2 298 L 88.1 297.3 L 89 296.7 L 90 296.2 L 90.9 295.9 L 91.8 295.6 L 92.6 295.4 L 93.5 295.3 L 94.3 295.3 L 95.2 295.3 L 96.1 295.5 L 97.1 295.7 L 98.1 296.1 L 99.1 296.5 L 100.1 297 L 101.2 297.6 L 110 302.7 L 110 302.7 Z"/><path d="M 79.7 301.2 L 78.5 303.2 L 77.2 305 L 76 306.4 L 74.8 307.7 L 73.6 308.6 L 72.3 309.4 L 71.1 309.9 L 69.8 310.2 L 68.5 310.3 L 67.2 310.1 L 65.9 309.7 L 64.5 309.1 L 63.6 308.5 L 62.8 307.8 L 62.1 307.1 L 61.5 306.3 L 61.1 305.5 L 60.7 304.6 L 60.5 303.6 L 60.4 302.6 L 60.4 301.6 L 60.5 300.5 L 60.7 299.3 L 61 298.1 L 61.4 296.8 L 62 295.3 L 62.8 293.8 L 63.8 292 L 65 290 L 66.2 288.3 L 67.5 286.8 L 68.7 285.6 L 69.9 284.6 L 71.1 283.9 L 72.4 283.4 L 73.7 283 L 75 282.9 L 76.2 283.1 L 77.6 283.5 L 78.9 284.2 L 79.1 284.3 L 77.5 286.6 L 76.4 286.2 L 75.3 286 L 74.1 286.2 L 72.9 286.6 L 71.5 287.5 L 70.1 289 L 68.5 291.1 L 66.8 293.8 L 65.3 296.6 L 64.3 299 L 63.7 301 L 63.7 302.6 L 63.9 303.9 L 64.4 305 L 65.1 305.9 L 66 306.6 L 67 307.1 L 68.1 307.3 L 69.2 307.2 L 70.3 306.8 L 71.8 305.8 L 73.3 304.3 L 74.9 302.2 L 76.6 299.4 L 76.6 299.4 L 78.1 296.6 L 79.2 294.2 L 79.7 292.2 L 79.8 290.6 L 79.6 289.3 L 79.1 288.2 L 78.4 287.3 L 77.5 286.6 L 79.1 284.3 L 80.5 285.3 L 81.7 286.6 L 82.5 288.1 L 83 289.9 L 83.1 292.3 L 82.5 295 L 81.4 297.9 L 79.7 301.2 L 79.7 301.2 Z"/><path d="M 55.4 288.8 L 55.5 286.4 L 56.1 286.4 L 57.2 286.2 L 58.2 285.8 L 59.1 285.2 L 59.9 284.5 L 60.6 283.5 L 60.6 283.5 L 60.9 282.9 L 61.1 282.2 L 61.3 281.4 L 61.4 280.7 L 61.4 279.9 L 61.2 279.2 L 61 278.5 L 60.7 277.8 L 60.2 277.1 L 59.7 276.6 L 59.1 276.1 L 58.5 275.6 L 57.4 275.1 L 56.3 274.8 L 55.2 274.8 L 54.1 275 L 53.1 275.3 L 52.2 275.9 L 51.4 276.7 L 50.7 277.7 L 50.2 278.8 L 49.9 279.8 L 49.9 281 L 50.1 282.1 L 50.5 283.1 L 51.1 284.1 L 51.8 284.9 L 52.8 285.6 L 53.9 286.1 L 55 286.3 L 55.5 286.4 L 55.4 288.8 L 53.3 289.9 L 52.8 289.2 L 52.2 288.5 L 51.3 288 L 50.5 287.5 L 49.6 287.4 L 48.7 287.3 L 47.9 287.4 L 47.1 287.7 L 46.4 288.1 L 45.7 288.7 L 45.2 289.4 L 44.8 290.3 L 44.6 291.1 L 44.6 292 L 44.8 292.9 L 45.1 293.7 L 45.6 294.5 L 46.2 295.1 L 47 295.7 L 47.8 296.1 L 48.7 296.3 L 49.6 296.3 L 50.4 296.2 L 51.2 295.9 L 52 295.5 L 52.6 294.9 L 53.1 294.2 L 53.1 294.2 L 53.5 293.3 L 53.7 292.5 L 53.8 291.6 L 53.6 290.7 L 53.3 289.9 L 55.4 288.8 L 56.1 289.7 L 56.6 290.5 L 56.9 291.4 L 57.1 292.4 L 57.1 293.2 L 56.9 294.1 L 56.6 295 L 56.2 295.9 L 55.3 297.1 L 54.3 298.1 L 53.1 298.8 L 51.7 299.2 L 50.2 299.4 L 48.7 299.3 L 47.2 298.9 L 45.6 298.1 L 44.1 297.2 L 42.9 296 L 42.1 294.7 L 41.5 293.3 L 41.2 291.8 L 41.2 290.4 L 41.5 289 L 42.2 287.7 L 42.7 286.9 L 43.3 286.2 L 44 285.7 L 44.8 285.2 L 45.6 284.9 L 46.5 284.8 L 47.5 284.7 L 48.6 284.8 L 47.8 283.8 L 47.2 282.7 L 46.7 281.6 L 46.5 280.5 L 46.5 279.4 L 46.7 278.2 L 47 277.1 L 47.6 275.9 L 48.6 274.5 L 49.8 273.4 L 51.2 272.5 L 52.9 272 L 54.6 271.7 L 56.3 271.8 L 58.1 272.3 L 59.9 273.2 L 61.6 274.3 L 62.9 275.6 L 63.8 277.1 L 64.5 278.7 L 64.8 280.4 L 64.8 282 L 64.4 283.7 L 63.7 285.3 L 62.9 286.4 L 62.1 287.3 L 61.1 288.1 L 60.1 288.6 L 59 288.9 L 57.9 289.1 L 56.7 289 L 55.4 288.8 L 55.4 288.8 Z"/><path stroke-width="5.9" fill="none" d="M 598.1 751.2 L 445 598.1 M 445 598.1 L 598.1 445 M 598.1 445 L 751.2 598.1 M 751.2 598.1 L 598.1 751.2"/><use x="614.1" y="815.9" xlink:href="#tool-D12-pad-1044"/><use x="598.1" y="703.9" xlink:href="#tool-D13-pad-1045"/><path d="M 519.4 848.9 L 516.8 846.3 L 528.3 834.8 L 529.8 833.4 L 531.1 832.2 L 532.5 831.3 L 533.7 830.7 L 535 830.2 L 536.3 830 L 537.6 830 L 539 830.3 L 540.5 830.7 L 542 831.5 L 543.4 832.5 L 544.8 833.8 L 546.1 835.2 L 547.1 836.6 L 547.9 838 L 548.5 839.4 L 548.7 840.7 L 548.8 842.1 L 548.6 843.4 L 548.2 844.7 L 547.5 846 L 546.6 847.4 L 545.4 848.9 L 544 850.4 L 532.4 862 L 529.8 859.3 L 541.3 847.8 L 542.5 846.6 L 543.5 845.5 L 544.2 844.4 L 544.6 843.5 L 545 842.6 L 545.1 841.8 L 545.1 840.9 L 544.9 840 L 544.6 839 L 544.1 838.1 L 543.5 837.3 L 542.7 836.4 L 541.2 835.1 L 539.9 834.2 L 538.5 833.7 L 537.2 833.6 L 535.9 833.8 L 534.4 834.6 L 532.7 835.8 L 530.9 837.4 L 519.4 848.9 L 519.4 848.9 Z"/><path d="M 524.1 813.7 L 526.5 816.2 L 510.9 831.8 L 511.8 831.8 L 512.8 832 L 513.8 832.2 L 515 832.4 L 516 832.7 L 517 833 L 517.9 833.4 L 518.8 833.7 L 516.4 836.1 L 514.9 835.6 L 513.4 835.2 L 512 835 L 510.5 834.8 L 509.1 834.8 L 507.8 834.9 L 506.7 835.1 L 505.7 835.3 L 504.1 833.8 L 524.1 813.7 L 524.1 813.7 Z"/><path stroke-width="5.9" fill="none" d="M 262.2 978.5 L 310.4 930.4 M 217.7 934 L 265.8 885.8"/><path d="M 192 987.5 L 211.9 1007.4 L 203.1 1016.3 L 201.8 1017.5 L 200.6 1018.5 L 199.5 1019.2 L 198.5 1019.8 L 197.5 1020.1 L 196.5 1020.3 L 195.5 1020.3 L 194.4 1020.1 L 193.3 1019.8 L 192.3 1019.3 L 191.4 1018.7 L 190.5 1017.9 L 189.6 1016.8 L 188.9 1015.6 L 188.5 1014.4 L 188.3 1013 L 188.5 1011.5 L 188.9 1010 L 189.7 1008.5 L 190.2 1007.7 L 192.7 1009.4 L 192.4 1010.1 L 192.1 1010.9 L 192 1011.5 L 191.9 1012.2 L 192 1012.9 L 192.2 1013.5 L 192.5 1014.2 L 192.8 1014.7 L 193.3 1015.2 L 194 1015.8 L 194.8 1016.2 L 195.7 1016.5 L 196.6 1016.5 L 197.6 1016.3 L 198.6 1015.9 L 199.7 1015.1 L 200.8 1014.2 L 207.1 1007.9 L 200.5 1001.3 L 200.5 1001.3 L 194.8 1007 L 194 1007.8 L 193.3 1008.7 L 192.7 1009.4 L 190.2 1007.7 L 190.7 1006.9 L 190 1007.1 L 189.3 1007.3 L 188.7 1007.4 L 188.1 1007.5 L 187 1007.5 L 185.9 1007.4 L 184.6 1007.3 L 183.3 1007 L 174.4 1005.1 L 177.7 1001.8 L 184.5 1003.3 L 185.9 1003.6 L 187.2 1003.8 L 188.3 1004 L 189.2 1004.1 L 190 1004.2 L 190.7 1004.2 L 191.3 1004.2 L 191.8 1004.1 L 192.3 1004 L 192.7 1003.8 L 193.2 1003.7 L 193.6 1003.4 L 193.9 1003.2 L 194.2 1002.9 L 194.7 1002.5 L 195.1 1002 L 198.2 999 L 189.4 990.1 L 192 987.5 L 192 987.5 Z"/><path d="M 163.7 1015.8 L 166.1 1013.3 L 181.7 1028.9 L 181.8 1028.1 L 181.9 1027.1 L 182.1 1026.1 L 182.4 1025 L 182.7 1023.8 L 183 1022.8 L 183.3 1021.9 L 183.7 1021.1 L 186.1 1023.5 L 185.6 1025 L 185.2 1026.4 L 185 1027.9 L 184.8 1029.4 L 184.8 1030.8 L 184.8 1032 L 185 1033.2 L 185.3 1034.2 L 183.7 1035.8 L 163.7 1015.8 L 163.7 1015.8 Z"/><path d="M 167.3 1031.9 L 168.9 1033.6 L 170.3 1035.3 L 171.4 1036.8 L 172.2 1038.3 L 172.8 1039.7 L 173.2 1041.1 L 173.4 1042.5 L 173.4 1043.8 L 173.1 1045.1 L 172.6 1046.3 L 171.9 1047.5 L 170.9 1048.6 L 170.1 1049.3 L 169.3 1049.9 L 168.4 1050.4 L 167.5 1050.7 L 166.6 1051 L 165.6 1051.1 L 164.6 1051 L 163.6 1050.9 L 162.6 1050.6 L 161.6 1050.2 L 160.5 1049.8 L 159.4 1049.2 L 158.3 1048.4 L 157 1047.4 L 155.7 1046.2 L 154.3 1044.9 L 152.6 1043.2 L 151.3 1041.5 L 150.2 1040 L 149.3 1038.5 L 148.7 1037.1 L 148.3 1035.7 L 148.1 1034.4 L 148.1 1033 L 148.4 1031.7 L 148.9 1030.5 L 149.6 1029.4 L 150.6 1028.2 L 150.8 1028.1 L 152.6 1030.2 L 151.9 1031.1 L 151.4 1032.2 L 151.3 1033.4 L 151.4 1034.7 L 151.9 1036.2 L 153 1038 L 154.6 1040.1 L 156.8 1042.4 L 159.1 1044.6 L 161.2 1046.2 L 162.9 1047.2 L 164.5 1047.7 L 165.8 1047.9 L 167 1047.7 L 168 1047.2 L 169 1046.5 L 169.7 1045.6 L 170.1 1044.6 L 170.3 1043.6 L 170.2 1042.4 L 169.7 1040.7 L 168.6 1038.8 L 166.9 1036.8 L 164.8 1034.4 L 164.8 1034.4 L 162.4 1032.2 L 160.4 1030.6 L 158.6 1029.6 L 157.1 1029 L 155.7 1028.9 L 154.6 1029.1 L 153.5 1029.5 L 152.6 1030.2 L 150.8 1028.1 L 152.1 1027 L 153.7 1026.2 L 155.4 1025.7 L 157.2 1025.8 L 159.5 1026.3 L 161.9 1027.5 L 164.5 1029.4 L 167.3 1031.9 L 167.3 1031.9 Z"/><use x="782.9" y="918.3" xlink:href="#tool-D14-pad-1046"/><path d="M 873.1 1098 L 897.5 1083.9 L 902.3 1092.2 L 899.4 1093.9 L 896.4 1088.8 L 877.8 1099.5 L 877.8 1099.5 L 880.8 1104.8 L 881.5 1105.9 L 882.2 1106.8 L 882.8 1107.6 L 883.5 1108.3 L 884.1 1108.8 L 884.7 1109.2 L 885.3 1109.5 L 886 1109.7 L 886.9 1109.9 L 887.9 1110 L 889 1109.9 L 890.1 1109.8 L 891.3 1109.4 L 892.5 1109 L 893.8 1108.4 L 895.2 1107.7 L 896.9 1106.5 L 898.4 1105.4 L 899.5 1104.2 L 900.3 1103 L 900.9 1101.8 L 901.2 1100.6 L 901.4 1099.5 L 901.3 1098.4 L 901.1 1097.5 L 900.7 1096.4 L 900.1 1095.3 L 899.4 1093.9 L 902.3 1092.2 L 902.3 1092.3 L 903.1 1093.7 L 903.7 1094.8 L 904.2 1095.9 L 904.5 1096.8 L 904.8 1098 L 904.9 1099.2 L 904.9 1100.3 L 904.8 1101.4 L 904.4 1102.8 L 903.9 1104.2 L 903.2 1105.5 L 902.3 1106.7 L 901.2 1107.9 L 900 1109 L 898.6 1110 L 897 1111 L 895.7 1111.8 L 894.3 1112.4 L 893 1112.9 L 891.7 1113.2 L 890.5 1113.5 L 889.4 1113.6 L 888.3 1113.7 L 887.2 1113.6 L 886.2 1113.5 L 885.3 1113.3 L 884.5 1113 L 883.7 1112.7 L 883 1112.2 L 882.2 1111.7 L 881.5 1111.1 L 880.8 1110.5 L 880.1 1109.7 L 879.4 1108.8 L 878.8 1107.8 L 878.1 1106.8 L 873.1 1098 L 873.1 1098 Z"/><path d="M 898.6 1114.4 L 900.7 1113.3 L 902.6 1112.4 L 904.4 1111.7 L 906.1 1111.3 L 907.6 1111.1 L 909.1 1111.1 L 910.4 1111.2 L 911.7 1111.6 L 912.9 1112.2 L 913.9 1112.9 L 914.8 1114 L 915.7 1115.2 L 916.2 1116.2 L 916.5 1117.2 L 916.8 1118.1 L 916.9 1119.1 L 916.8 1120 L 916.7 1121 L 916.4 1121.9 L 916 1122.9 L 915.5 1123.8 L 914.8 1124.7 L 914.1 1125.6 L 913.3 1126.4 L 912.2 1127.4 L 911 1128.3 L 909.5 1129.3 L 907.8 1130.3 L 905.7 1131.4 L 903.8 1132.4 L 902 1133 L 900.3 1133.5 L 898.8 1133.7 L 897.4 1133.7 L 896 1133.5 L 894.8 1133.2 L 893.6 1132.6 L 892.5 1131.8 L 891.6 1130.8 L 890.7 1129.6 L 890.7 1129.3 L 893.2 1128.1 L 893.9 1129.1 L 894.8 1129.8 L 895.9 1130.2 L 897.2 1130.5 L 898.8 1130.3 L 900.8 1129.8 L 903.2 1128.8 L 906 1127.3 L 908.7 1125.6 L 910.8 1124 L 912.3 1122.5 L 913.2 1121.2 L 913.7 1120 L 913.8 1118.8 L 913.6 1117.7 L 913.2 1116.6 L 912.5 1115.7 L 911.7 1115 L 910.7 1114.5 L 909.5 1114.3 L 907.8 1114.4 L 905.7 1115 L 903.2 1116 L 900.4 1117.5 L 900.4 1117.5 L 897.7 1119.2 L 895.6 1120.7 L 894.1 1122.2 L 893.2 1123.5 L 892.7 1124.8 L 892.6 1126 L 892.8 1127.1 L 893.2 1128.1 L 890.7 1129.3 L 890 1127.8 L 889.6 1126.1 L 889.6 1124.3 L 890.1 1122.5 L 891.2 1120.5 L 893 1118.5 L 895.5 1116.4 L 898.6 1114.4 L 898.6 1114.4 Z"/><path d="M 904 1151.6 L 902.3 1148.6 L 921.4 1137.6 L 920.5 1137.3 L 919.6 1137 L 918.7 1136.5 L 917.7 1135.9 L 916.7 1135.4 L 915.8 1134.8 L 915 1134.2 L 914.3 1133.7 L 917.2 1132 L 918.5 1132.9 L 919.9 1133.6 L 921.2 1134.2 L 922.6 1134.8 L 924 1135.1 L 925.2 1135.4 L 926.4 1135.5 L 927.4 1135.5 L 928.5 1137.5 L 904 1151.6 L 904 1151.6 Z"/><use x="228.4" y="598.1" xlink:href="#tool-D15-pad-1047"/><path d="M 27.7 586.3 L 27.7 614.5 L 18.1 614.5 L 18.1 611.1 L 24 611.1 L 24 589.6 L 24 589.6 L 18 589.6 L 16.6 589.6 L 15.5 589.8 L 14.5 589.9 L 13.6 590.1 L 12.9 590.4 L 12.2 590.8 L 11.6 591.1 L 11.1 591.6 L 10.5 592.3 L 9.9 593.1 L 9.4 594.1 L 9 595.1 L 8.7 596.3 L 8.5 597.6 L 8.3 599 L 8.3 600.6 L 8.4 602.7 L 8.7 604.5 L 9.1 606.1 L 9.7 607.4 L 10.5 608.5 L 11.3 609.4 L 12.2 610.1 L 13.3 610.6 L 14.1 610.8 L 15.2 611 L 16.5 611.1 L 18.1 611.1 L 18.1 614.5 L 18 614.5 L 16.5 614.4 L 15.1 614.4 L 14 614.2 L 13 614.1 L 11.8 613.7 L 10.7 613.3 L 9.8 612.7 L 8.8 612 L 7.8 611.1 L 6.9 609.9 L 6.2 608.7 L 5.5 607.2 L 5 605.7 L 4.7 604.1 L 4.5 602.4 L 4.4 600.5 L 4.5 599 L 4.6 597.5 L 4.8 596.1 L 5.2 594.8 L 5.6 593.7 L 6 592.6 L 6.5 591.6 L 7.1 590.7 L 7.7 590 L 8.3 589.3 L 9 588.7 L 9.7 588.2 L 10.4 587.7 L 11.2 587.4 L 12.1 587 L 13 586.8 L 14 586.6 L 15.1 586.4 L 16.3 586.3 L 17.5 586.3 L 27.7 586.3 L 27.7 586.3 Z"/><path d="M 0.7 600.2 L 0.6 602.5 L 0.4 604.7 L 0.1 606.6 L 0 607 M -0.3 608.2 M 0 593.3 L 0 593.3 L 0.5 596.5 L 0.7 600.2 L 0.7 600.2 Z"/><use x="598.1" y="228.4" xlink:href="#tool-D16-pad-1048"/><path d="M 609.9 27.7 L 581.7 27.7 L 581.7 18.1 L 585.1 18.1 L 585.1 24 L 606.6 24 L 606.6 24 L 606.6 18 L 606.6 16.6 L 606.4 15.5 L 606.3 14.5 L 606.1 13.6 L 605.8 12.9 L 605.4 12.2 L 605.1 11.6 L 604.6 11.1 L 603.9 10.5 L 603.1 9.9 L 602.1 9.4 L 601.1 9 L 599.9 8.7 L 598.6 8.5 L 597.2 8.3 L 595.6 8.3 L 593.5 8.4 L 591.7 8.7 L 590.1 9.1 L 588.8 9.7 L 587.7 10.5 L 586.8 11.3 L 586.1 12.2 L 585.6 13.3 L 585.4 14.1 L 585.2 15.2 L 585.1 16.5 L 585.1 18.1 L 581.7 18.1 L 581.7 18 L 581.8 16.5 L 581.8 15.1 L 582 14 L 582.1 13 L 582.5 11.8 L 582.9 10.7 L 583.5 9.8 L 584.2 8.8 L 585.1 7.8 L 586.3 6.9 L 587.5 6.2 L 589 5.5 L 590.5 5 L 592.1 4.7 L 593.8 4.5 L 595.7 4.4 L 597.2 4.5 L 598.7 4.6 L 600.1 4.8 L 601.4 5.2 L 602.5 5.6 L 603.6 6 L 604.6 6.5 L 605.5 7.1 L 606.2 7.7 L 606.9 8.3 L 607.5 9 L 608 9.7 L 608.5 10.4 L 608.8 11.2 L 609.2 12.1 L 609.4 13 L 609.6 14 L 609.8 15.1 L 609.9 16.3 L 609.9 17.5 L 609.9 27.7 L 609.9 27.7 Z"/><path d="M 596 0.7 L 593.7 0.6 L 591.5 0.4 L 589.6 0.1 L 589.2 0 M 588 -0.3 M 602.9 0 L 602.9 0 L 599.7 0.5 L 596 0.7 L 596 0.7 Z"/><path stroke-width="5.9" fill="none" d="M 698.8 100.7 L 681.1 166.5 M 759.6 117 L 742 182.8"/><path d="M 750.2 43 L 723 35.7 L 726.2 23.7 L 726.7 22 L 727.3 20.5 L 727.8 19.3 L 728.4 18.3 L 729.1 17.5 L 729.9 16.9 L 730.8 16.4 L 731.8 16 L 732.9 15.7 L 734 15.7 L 735.1 15.7 L 736.2 15.9 L 737.6 16.4 L 738.8 17.1 L 739.8 18 L 740.6 19.1 L 741.2 20.4 L 741.6 22 L 741.7 23.7 L 741.6 24.6 L 738.6 24.4 L 738.6 23.6 L 738.5 22.9 L 738.2 22.2 L 737.9 21.6 L 737.5 21.1 L 737 20.6 L 736.5 20.2 L 735.9 19.9 L 735.2 19.7 L 734.3 19.5 L 733.4 19.6 L 732.5 19.8 L 731.7 20.2 L 730.9 20.9 L 730.3 21.8 L 729.7 22.9 L 729.3 24.3 L 727 32.9 L 736 35.3 L 736 35.3 L 738 27.6 L 738.3 26.4 L 738.5 25.3 L 738.6 24.4 L 741.6 24.6 L 741.6 25.6 L 742.1 25 L 742.6 24.5 L 743.1 24.1 L 743.5 23.8 L 744.5 23.2 L 745.6 22.7 L 746.7 22.2 L 747.9 21.8 L 756.6 19 L 755.4 23.6 L 748.8 25.7 L 747.4 26.1 L 746.2 26.5 L 745.2 26.9 L 744.4 27.2 L 743.6 27.6 L 743 27.9 L 742.5 28.3 L 742 28.6 L 741.7 28.9 L 741.4 29.3 L 741.1 29.6 L 740.9 30 L 740.7 30.4 L 740.5 30.8 L 740.4 31.4 L 740.2 32 L 739.1 36.2 L 751.2 39.4 L 750.2 43 L 750.2 43 Z"/><path d="M 743.8 13.4 L 741.5 12.7 L 739.5 12 L 737.7 11.2 L 736.2 10.3 L 735 9.4 L 734 8.4 L 733.1 7.3 L 732.5 6.1 L 732.1 4.9 L 731.9 3.6 L 732 2.2 L 732.2 0.8 L 732.5 0 M 732.6 -0.3 M 757.6 0 L 758.3 0.6 L 759.1 1.7 L 759.8 2.8 L 760.2 4.1 L 760.3 5.4 L 760.3 6.8 L 760 8.2 L 760 8.5 L 757.3 7.5 L 757.4 6.3 L 757.3 5.2 L 756.8 4.1 L 756.1 3 L 754.9 2 L 753.1 0.9 L 750.6 0 L 750.6 0 M 747.6 -1 M 735.8 0 L 735.4 0.5 L 735 1.5 L 734.8 2.7 L 734.9 3.7 L 735.3 4.8 L 735.9 5.7 L 737.3 6.9 L 739.2 8 L 741.6 9 L 744.7 10 L 744.7 10 L 747.8 10.7 L 750.4 11.1 L 752.4 11.1 L 754 10.7 L 755.2 10.2 L 756.2 9.4 L 756.8 8.5 L 757.3 7.5 L 760 8.5 L 759.4 10 L 758.4 11.5 L 757.1 12.7 L 755.5 13.7 L 753.3 14.3 L 750.5 14.5 L 747.4 14.2 L 743.8 13.4 L 743.8 13.4 Z"/><path stroke-width="5.9" fill="none" d="M 100.7 497.4 L 166.5 515.1 M 117 436.6 L 182.8 454.2"/><path d="M 43 446 L 35.7 473.2 L 23.7 470 L 22 469.5 L 20.5 468.9 L 19.3 468.4 L 18.3 467.8 L 17.5 467.1 L 16.9 466.3 L 16.4 465.4 L 16 464.4 L 15.7 463.3 L 15.7 462.2 L 15.7 461.1 L 15.9 460 L 16.4 458.6 L 17.1 457.4 L 18 456.4 L 19.1 455.6 L 20.4 455 L 22 454.6 L 23.7 454.5 L 24.6 454.6 L 24.4 457.6 L 23.6 457.6 L 22.9 457.7 L 22.2 458 L 21.6 458.3 L 21.1 458.7 L 20.6 459.2 L 20.2 459.7 L 19.9 460.3 L 19.7 461 L 19.5 461.9 L 19.6 462.8 L 19.8 463.7 L 20.2 464.5 L 20.9 465.3 L 21.8 465.9 L 22.9 466.5 L 24.3 466.9 L 32.9 469.2 L 35.3 460.2 L 35.3 460.2 L 27.6 458.2 L 26.4 457.9 L 25.3 457.7 L 24.4 457.6 L 24.6 454.6 L 25.6 454.6 L 25 454.1 L 24.5 453.6 L 24.1 453.1 L 23.8 452.7 L 23.2 451.7 L 22.7 450.6 L 22.2 449.5 L 21.8 448.3 L 19 439.6 L 23.6 440.8 L 25.7 447.4 L 26.1 448.8 L 26.5 450 L 26.9 451 L 27.2 451.8 L 27.6 452.6 L 27.9 453.2 L 28.3 453.7 L 28.6 454.2 L 28.9 454.5 L 29.3 454.8 L 29.6 455.1 L 30 455.3 L 30.4 455.5 L 30.8 455.7 L 31.4 455.8 L 32 456 L 36.2 457.1 L 39.4 445 L 43 446 L 43 446 Z"/><path d="M 13.4 452.4 L 12.7 454.7 L 12 456.7 L 11.2 458.5 L 10.3 460 L 9.4 461.2 L 8.4 462.2 L 7.3 463.1 L 6.1 463.7 L 4.9 464.1 L 3.6 464.3 L 2.2 464.2 L 0.8 464 L 0 463.7 M -0.3 463.6 M 0 438.6 L 0.6 437.9 L 1.7 437.1 L 2.8 436.4 L 4.1 436 L 5.4 435.9 L 6.8 435.9 L 8.2 436.2 L 8.5 436.2 L 7.5 438.9 L 6.3 438.8 L 5.2 438.9 L 4.1 439.4 L 3 440.1 L 2 441.3 L 0.9 443.1 L 0 445.6 L 0 445.6 M -1 448.6 M 0 460.4 L 0.5 460.8 L 1.5 461.2 L 2.7 461.4 L 3.7 461.3 L 4.8 460.9 L 5.7 460.3 L 6.9 458.9 L 8 457 L 9 454.6 L 10 451.5 L 10 451.5 L 10.7 448.4 L 11.1 445.8 L 11.1 443.8 L 10.7 442.2 L 10.2 441 L 9.4 440 L 8.5 439.4 L 7.5 438.9 L 8.5 436.2 L 10 436.8 L 11.5 437.8 L 12.7 439.1 L 13.7 440.7 L 14.3 442.9 L 14.5 445.7 L 14.2 448.8 L 13.4 452.4 L 13.4 452.4 Z"/><path stroke-width="5.9" fill="none" d="M 1095.5 698.8 L 1029.7 681.1 M 1079.2 759.6 L 1013.4 742"/><path d="M 1133.5 769.9 L 1140.8 742.7 L 1152.9 745.9 L 1154.6 746.4 L 1156 747 L 1157.2 747.5 L 1158.2 748.1 L 1159 748.8 L 1159.6 749.6 L 1160.1 750.5 L 1160.5 751.5 L 1160.8 752.6 L 1160.9 753.7 L 1160.8 754.8 L 1160.6 755.9 L 1160.1 757.3 L 1159.4 758.5 L 1158.5 759.5 L 1157.4 760.3 L 1156.1 760.9 L 1154.6 761.3 L 1152.8 761.4 L 1151.9 761.3 L 1152.1 758.3 L 1152.9 758.3 L 1153.7 758.1 L 1154.3 757.9 L 1154.9 757.6 L 1155.5 757.2 L 1155.9 756.7 L 1156.3 756.2 L 1156.6 755.6 L 1156.8 754.9 L 1157 754 L 1157 753.1 L 1156.7 752.2 L 1156.3 751.4 L 1155.7 750.6 L 1154.8 750 L 1153.6 749.4 L 1152.2 749 L 1143.6 746.6 L 1141.2 755.7 L 1141.2 755.7 L 1148.9 757.7 L 1150.1 758 L 1151.2 758.2 L 1152.1 758.3 L 1151.9 761.3 L 1150.9 761.3 L 1151.5 761.8 L 1152 762.3 L 1152.4 762.8 L 1152.7 763.2 L 1153.3 764.2 L 1153.8 765.3 L 1154.3 766.4 L 1154.8 767.6 L 1157.5 776.3 L 1152.9 775.1 L 1150.9 768.5 L 1150.4 767.1 L 1150 765.9 L 1149.6 764.9 L 1149.3 764 L 1148.9 763.3 L 1148.6 762.7 L 1148.3 762.2 L 1147.9 761.7 L 1147.6 761.4 L 1147.2 761.1 L 1146.9 760.8 L 1146.5 760.5 L 1146.1 760.4 L 1145.7 760.2 L 1145.1 760.1 L 1144.5 759.9 L 1140.3 758.8 L 1137.1 770.9 L 1133.5 769.9 L 1133.5 769.9 Z"/><path d="M 1163.1 763.5 L 1163.8 761.2 L 1164.6 759.2 L 1165.3 757.4 L 1166.2 755.9 L 1167.2 754.7 L 1168.1 753.7 L 1169.2 752.8 L 1170.4 752.2 L 1171.6 751.8 L 1172.9 751.6 L 1174.3 751.6 L 1175.7 751.9 L 1176.8 752.3 L 1177.7 752.7 L 1178.6 753.2 L 1179.4 753.8 L 1180 754.5 L 1180.6 755.3 L 1181.1 756.2 L 1181.4 757.1 L 1181.7 758.1 L 1181.9 759.2 L 1182 760.4 L 1182 761.6 L 1181.9 763 L 1181.7 764.5 L 1181.4 766.3 L 1180.9 768.2 L 1180.2 770.5 L 1179.5 772.5 L 1178.7 774.2 L 1177.8 775.7 L 1176.9 776.9 L 1175.9 777.9 L 1174.8 778.8 L 1173.7 779.4 L 1172.4 779.9 L 1171.1 780 L 1169.8 780 L 1168.3 779.7 L 1168.1 779.6 L 1169 777 L 1170.2 777.1 L 1171.3 777 L 1172.4 776.5 L 1173.5 775.8 L 1174.6 774.6 L 1175.6 772.7 L 1176.6 770.3 L 1177.5 767.3 L 1178.2 764.2 L 1178.6 761.6 L 1178.6 759.5 L 1178.3 757.9 L 1177.7 756.7 L 1177 755.8 L 1176.1 755.1 L 1175 754.7 L 1173.8 754.5 L 1172.8 754.6 L 1171.8 755 L 1170.8 755.6 L 1169.6 757 L 1168.5 758.8 L 1167.5 761.3 L 1166.6 764.4 L 1166.6 764.4 L 1165.9 767.5 L 1165.5 770.1 L 1165.5 772.1 L 1165.8 773.7 L 1166.3 774.9 L 1167.1 775.9 L 1168 776.5 L 1169 777 L 1168.1 779.6 L 1166.5 779 L 1165 778.1 L 1163.8 776.8 L 1162.9 775.2 L 1162.2 772.9 L 1162 770.2 L 1162.4 767 L 1163.1 763.5 L 1163.1 763.5 Z"/><path d="M 1196.2 786.6 L 1180.3 782.4 L 1180.5 781.8 L 1180.7 781.2 L 1180.9 780.7 L 1181.3 780.2 L 1181.9 779.4 L 1182.7 778.6 L 1183.5 777.9 L 1184.4 777.2 L 1185.5 776.5 L 1186.8 775.7 L 1188.3 775 L 1190 774.2 L 1192.4 773.1 L 1194.5 772 L 1196.2 771 L 1196.2 771 M 1197.5 770.1 M 1196.2 760.4 L 1196.2 760.4 L 1195.1 760.1 L 1194 760.1 L 1192.9 760.3 L 1192 760.8 L 1191.2 761.4 L 1190.5 762.2 L 1189.9 763.2 L 1189.5 764.4 L 1186.1 763.1 L 1186.9 761.4 L 1187.9 760 L 1189 758.8 L 1190.3 758 L 1191.8 757.4 L 1193.5 757.2 L 1195.2 757.3 L 1196.2 757.5 M 1197.1 757.6 M 1196.2 774.8 L 1194.5 775.6 L 1192.5 776.6 L 1190.8 777.4 L 1189.4 778.1 L 1188.4 778.6 L 1187.7 779 L 1187.2 779.4 L 1186.6 779.7 L 1186.2 780.1 L 1185.8 780.5 L 1196.2 783.2 M 1199.1 784 Z"/><use x="413.3" y="277.9" xlink:href="#tool-D17-pad-1049"/><path d="M 323.1 98.2 L 298.7 112.3 L 293.9 104 L 296.8 102.3 L 299.8 107.4 L 318.4 96.7 L 318.4 96.7 L 315.4 91.4 L 314.7 90.3 L 314 89.4 L 313.4 88.6 L 312.7 87.9 L 312.1 87.4 L 311.5 87 L 310.9 86.7 L 310.2 86.5 L 309.3 86.3 L 308.3 86.2 L 307.2 86.3 L 306.1 86.4 L 304.9 86.8 L 303.7 87.2 L 302.4 87.8 L 301 88.5 L 299.3 89.7 L 297.8 90.8 L 296.7 92 L 295.9 93.2 L 295.3 94.4 L 295 95.6 L 294.8 96.7 L 294.9 97.8 L 295.1 98.7 L 295.5 99.8 L 296.1 100.9 L 296.8 102.3 L 293.9 104 L 293.9 103.9 L 293.1 102.5 L 292.5 101.4 L 292 100.3 L 291.7 99.4 L 291.4 98.2 L 291.3 97 L 291.3 95.9 L 291.4 94.8 L 291.8 93.4 L 292.3 92 L 293 90.7 L 293.9 89.5 L 295 88.3 L 296.2 87.2 L 297.6 86.2 L 299.2 85.2 L 300.5 84.4 L 301.9 83.8 L 303.2 83.3 L 304.5 83 L 305.7 82.7 L 306.8 82.6 L 307.9 82.5 L 309 82.6 L 310 82.7 L 310.9 82.9 L 311.7 83.2 L 312.5 83.5 L 313.2 84 L 314 84.5 L 314.7 85.1 L 315.4 85.7 L 316.1 86.5 L 316.8 87.4 L 317.4 88.4 L 318.1 89.4 L 323.1 98.2 L 323.1 98.2 Z"/><path d="M 297.6 81.8 L 295.5 82.9 L 293.6 83.8 L 291.8 84.5 L 290.1 84.9 L 288.6 85.1 L 287.1 85.1 L 285.8 85 L 284.5 84.6 L 283.3 84 L 282.3 83.3 L 281.4 82.2 L 280.5 81 L 280 80 L 279.7 79 L 279.4 78.1 L 279.3 77.1 L 279.4 76.2 L 279.5 75.2 L 279.8 74.3 L 280.2 73.3 L 280.7 72.4 L 281.4 71.5 L 282.1 70.6 L 282.9 69.8 L 284 68.8 L 285.2 67.9 L 286.7 66.9 L 288.4 65.9 L 290.5 64.8 L 292.4 63.8 L 294.2 63.2 L 295.9 62.7 L 297.4 62.5 L 298.8 62.5 L 300.2 62.7 L 301.4 63 L 302.6 63.6 L 303.7 64.4 L 304.6 65.4 L 305.5 66.6 L 305.5 66.9 L 303 68.1 L 302.3 67.1 L 301.4 66.4 L 300.3 66 L 299 65.7 L 297.4 65.9 L 295.4 66.4 L 293 67.4 L 290.2 68.9 L 287.5 70.6 L 285.4 72.2 L 283.9 73.7 L 283 75 L 282.5 76.2 L 282.4 77.4 L 282.6 78.5 L 283 79.6 L 283.7 80.5 L 284.5 81.2 L 285.5 81.7 L 286.7 81.9 L 288.4 81.8 L 290.5 81.2 L 293 80.2 L 295.8 78.7 L 295.8 78.7 L 298.5 77 L 300.6 75.5 L 302.1 74 L 303 72.7 L 303.5 71.4 L 303.6 70.2 L 303.4 69.1 L 303 68.1 L 305.5 66.9 L 306.2 68.4 L 306.6 70.1 L 306.6 71.9 L 306.1 73.7 L 305 75.7 L 303.2 77.7 L 300.7 79.8 L 297.6 81.8 L 297.6 81.8 Z"/><path d="M 277.4 67.9 L 274.5 69.6 L 265.3 53.8 L 267.7 52.4 L 269.7 52.8 L 271.9 53.1 L 274.3 53.2 L 277 53.3 L 279.6 53.1 L 282.3 52.9 L 284.9 52.5 L 287.4 51.9 L 289.2 51.4 L 291.1 50.8 L 292.9 50 L 294.8 49.2 L 296.6 52.2 L 295 53 L 293.2 53.8 L 291.2 54.5 L 289 55.1 L 286.6 55.7 L 284.2 56.1 L 281.8 56.4 L 279.3 56.6 L 276.9 56.6 L 274.6 56.5 L 272.5 56.3 L 270.5 56 L 277.4 67.9 L 277.4 67.9 Z"/><use x="918.3" y="413.3" xlink:href="#tool-D18-pad-1050"/><path d="M 1098 323.1 L 1083.9 298.7 L 1092.2 293.9 L 1093.9 296.8 L 1088.8 299.8 L 1099.5 318.4 L 1099.5 318.4 L 1104.8 315.4 L 1105.9 314.7 L 1106.8 314 L 1107.6 313.4 L 1108.3 312.7 L 1108.8 312.1 L 1109.2 311.5 L 1109.5 310.9 L 1109.7 310.2 L 1109.9 309.3 L 1110 308.3 L 1109.9 307.2 L 1109.8 306.1 L 1109.4 304.9 L 1109 303.7 L 1108.4 302.4 L 1107.7 301 L 1106.5 299.3 L 1105.4 297.8 L 1104.2 296.7 L 1103 295.9 L 1101.8 295.3 L 1100.6 295 L 1099.5 294.8 L 1098.4 294.9 L 1097.5 295.1 L 1096.4 295.5 L 1095.3 296.1 L 1093.9 296.8 L 1092.2 293.9 L 1092.3 293.9 L 1093.7 293.1 L 1094.8 292.5 L 1095.9 292 L 1096.8 291.7 L 1098 291.4 L 1099.2 291.3 L 1100.3 291.3 L 1101.4 291.4 L 1102.8 291.8 L 1104.2 292.3 L 1105.5 293 L 1106.7 293.9 L 1107.9 295 L 1109 296.2 L 1110 297.6 L 1111 299.2 L 1111.8 300.5 L 1112.4 301.9 L 1112.9 303.2 L 1113.2 304.5 L 1113.5 305.7 L 1113.6 306.8 L 1113.7 307.9 L 1113.6 309 L 1113.5 310 L 1113.3 310.9 L 1113 311.7 L 1112.7 312.5 L 1112.2 313.2 L 1111.7 314 L 1111.1 314.7 L 1110.5 315.4 L 1109.7 316.1 L 1108.8 316.8 L 1107.8 317.4 L 1106.8 318.1 L 1098 323.1 L 1098 323.1 Z"/><path d="M 1114.4 297.6 L 1113.3 295.5 L 1112.4 293.6 L 1111.7 291.8 L 1111.3 290.1 L 1111.1 288.6 L 1111.1 287.1 L 1111.2 285.8 L 1111.6 284.5 L 1112.2 283.3 L 1112.9 282.3 L 1114 281.4 L 1115.2 280.5 L 1116.2 280 L 1117.2 279.7 L 1118.1 279.4 L 1119.1 279.3 L 1120 279.4 L 1121 279.5 L 1121.9 279.8 L 1122.9 280.2 L 1123.8 280.7 L 1124.7 281.4 L 1125.6 282.1 L 1126.4 282.9 L 1127.4 284 L 1128.3 285.2 L 1129.3 286.7 L 1130.3 288.4 L 1131.4 290.5 L 1132.4 292.4 L 1133 294.2 L 1133.5 295.9 L 1133.7 297.4 L 1133.7 298.8 L 1133.5 300.2 L 1133.2 301.4 L 1132.6 302.6 L 1131.8 303.7 L 1130.8 304.6 L 1129.6 305.5 L 1129.3 305.5 L 1128.1 303 L 1129.1 302.3 L 1129.8 301.4 L 1130.2 300.3 L 1130.5 299 L 1130.3 297.4 L 1129.8 295.4 L 1128.8 293 L 1127.3 290.2 L 1125.6 287.5 L 1124 285.4 L 1122.5 283.9 L 1121.2 283 L 1120 282.5 L 1118.8 282.4 L 1117.7 282.6 L 1116.6 283 L 1115.7 283.7 L 1115 284.5 L 1114.5 285.5 L 1114.3 286.7 L 1114.4 288.4 L 1115 290.5 L 1116 293 L 1117.5 295.8 L 1117.5 295.8 L 1119.2 298.5 L 1120.7 300.6 L 1122.2 302.1 L 1123.5 303 L 1124.8 303.5 L 1126 303.6 L 1127.1 303.4 L 1128.1 303 L 1129.3 305.5 L 1127.8 306.2 L 1126.1 306.6 L 1124.3 306.6 L 1122.5 306.1 L 1120.5 305 L 1118.5 303.2 L 1116.4 300.7 L 1114.4 297.6 L 1114.4 297.6 Z"/><path d="M 1150 293.1 L 1146.6 287.3 L 1136 293.4 L 1134.4 290.7 L 1136 273.3 L 1138.6 273.5 L 1137.4 289 L 1145 284.6 L 1145 284.6 L 1138.6 273.5 L 1136 273.3 L 1136.4 268.4 L 1138.8 267 L 1148 282.8 L 1151.3 280.9 L 1152.9 283.7 L 1149.6 285.5 L 1152.9 291.4 L 1150 293.1 L 1150 293.1 Z"/><use x="413.3" y="918.3" xlink:href="#tool-D19-pad-1051"/><path d="M 302.7 1086.2 L 327.1 1100.2 L 322.3 1108.6 L 319.4 1106.9 L 322.4 1101.8 L 303.7 1091.1 L 303.7 1091.1 L 300.7 1096.2 L 300.1 1097.4 L 299.6 1098.5 L 299.2 1099.4 L 299 1100.3 L 298.8 1101.1 L 298.8 1101.8 L 298.8 1102.5 L 299 1103.2 L 299.3 1104.1 L 299.7 1105 L 300.3 1105.9 L 301 1106.8 L 301.9 1107.7 L 302.9 1108.5 L 304 1109.4 L 305.3 1110.1 L 307.2 1111.1 L 308.9 1111.8 L 310.5 1112.2 L 312 1112.3 L 313.3 1112.2 L 314.5 1111.9 L 315.5 1111.4 L 316.5 1110.8 L 317.1 1110.2 L 317.8 1109.4 L 318.6 1108.3 L 319.4 1106.9 L 322.3 1108.6 L 322.2 1108.7 L 321.4 1110 L 320.7 1111.1 L 320 1112 L 319.4 1112.8 L 318.5 1113.7 L 317.6 1114.4 L 316.6 1114.9 L 315.6 1115.4 L 314.2 1115.8 L 312.7 1116 L 311.2 1116 L 309.7 1115.9 L 308.2 1115.5 L 306.6 1115 L 305 1114.3 L 303.4 1113.5 L 302 1112.6 L 300.9 1111.8 L 299.8 1110.9 L 298.8 1110 L 298 1109 L 297.3 1108.1 L 296.7 1107.2 L 296.2 1106.2 L 295.9 1105.3 L 295.6 1104.4 L 295.4 1103.6 L 295.3 1102.7 L 295.3 1101.9 L 295.3 1101 L 295.5 1100.1 L 295.7 1099.1 L 296.1 1098.1 L 296.5 1097.1 L 297 1096.1 L 297.6 1095 L 302.7 1086.2 L 302.7 1086.2 Z"/><path d="M 282.7 1120.9 L 284.4 1117.9 L 303.5 1128.9 L 303.3 1128 L 303.2 1127 L 303.1 1126 L 303.1 1124.8 L 303.1 1123.7 L 303.1 1122.7 L 303.2 1121.7 L 303.3 1120.8 L 306.2 1122.5 L 306.1 1124 L 306.2 1125.6 L 306.3 1127.1 L 306.6 1128.5 L 306.9 1129.9 L 307.3 1131.1 L 307.7 1132.2 L 308.3 1133.1 L 307.2 1135 L 282.7 1120.9 L 282.7 1120.9 Z"/><path d="M 273.2 1137.3 L 274.9 1134.3 L 294 1145.3 L 293.8 1144.4 L 293.7 1143.5 L 293.6 1142.4 L 293.6 1141.3 L 293.6 1140.1 L 293.6 1139.1 L 293.7 1138.1 L 293.8 1137.2 L 296.7 1138.9 L 296.6 1140.5 L 296.7 1142 L 296.8 1143.5 L 297.1 1145 L 297.4 1146.3 L 297.8 1147.5 L 298.3 1148.6 L 298.8 1149.5 L 297.7 1151.4 L 273.2 1137.3 L 273.2 1137.3 Z"/><path stroke-width="5.9" fill="none" d="M 217.7 262.2 L 265.8 310.4 M 262.2 217.7 L 310.4 265.8"/><path d="M 208.7 192 L 188.8 211.9 L 179.9 203.1 L 178.7 201.8 L 177.7 200.6 L 177 199.5 L 176.4 198.5 L 176.1 197.5 L 175.9 196.5 L 175.9 195.5 L 176.1 194.4 L 176.4 193.3 L 176.9 192.3 L 177.5 191.4 L 178.3 190.5 L 179.4 189.6 L 180.6 188.9 L 181.8 188.5 L 183.2 188.3 L 184.7 188.5 L 186.2 188.9 L 187.7 189.7 L 188.5 190.2 L 186.8 192.7 L 186.1 192.4 L 185.3 192.1 L 184.7 192 L 184 191.9 L 183.3 192 L 182.7 192.2 L 182 192.5 L 181.5 192.8 L 181 193.3 L 180.4 194 L 180 194.8 L 179.7 195.7 L 179.7 196.6 L 179.9 197.6 L 180.3 198.6 L 181.1 199.7 L 182 200.8 L 188.3 207.1 L 194.9 200.5 L 194.9 200.5 L 189.2 194.8 L 188.4 194 L 187.5 193.3 L 186.8 192.7 L 188.5 190.2 L 189.3 190.7 L 189.1 190 L 188.9 189.3 L 188.8 188.7 L 188.7 188.1 L 188.7 187 L 188.8 185.9 L 188.9 184.6 L 189.2 183.3 L 191.1 174.4 L 194.4 177.7 L 192.9 184.5 L 192.6 185.9 L 192.4 187.2 L 192.2 188.3 L 192.1 189.2 L 192 190 L 192 190.7 L 192 191.3 L 192.1 191.8 L 192.2 192.3 L 192.4 192.7 L 192.5 193.2 L 192.8 193.6 L 193 193.9 L 193.3 194.2 L 193.7 194.7 L 194.2 195.1 L 197.2 198.2 L 206.1 189.4 L 208.7 192 L 208.7 192 Z"/><path d="M 179.8 182.7 L 178.1 184.4 L 176.4 185.7 L 174.9 186.9 L 173.4 187.7 L 172 188.3 L 170.6 188.7 L 169.2 188.9 L 167.9 188.8 L 166.6 188.6 L 165.4 188.1 L 164.2 187.4 L 163.1 186.4 L 162.4 185.6 L 161.8 184.8 L 161.3 183.9 L 160.9 183 L 160.7 182 L 160.6 181.1 L 160.7 180.1 L 160.8 179.1 L 161.1 178.1 L 161.4 177 L 162 176 L 162.5 174.9 L 163.3 173.8 L 164.2 172.5 L 165.4 171.2 L 166.8 169.8 L 168.5 168.1 L 170.1 166.8 L 171.7 165.7 L 173.2 164.8 L 174.6 164.2 L 176 163.8 L 177.4 163.6 L 178.7 163.7 L 180 163.9 L 181.2 164.4 L 182.4 165.1 L 183.5 166.1 L 183.7 166.3 L 181.4 168.1 L 180.5 167.4 L 179.5 167 L 178.3 166.8 L 177 166.9 L 175.5 167.4 L 173.7 168.5 L 171.6 170.1 L 169.3 172.3 L 167.1 174.6 L 165.5 176.6 L 164.4 178.4 L 163.9 180 L 163.8 181.2 L 164 182.5 L 164.4 183.5 L 165.1 184.4 L 166.1 185.1 L 167 185.6 L 168.1 185.8 L 169.3 185.7 L 170.9 185.1 L 172.8 184 L 175 182.4 L 177.3 180.2 L 177.3 180.2 L 179.4 177.9 L 181.1 175.9 L 182.2 174.1 L 182.7 172.5 L 182.7 171.2 L 182.6 170 L 182.2 169 L 181.4 168.1 L 183.7 166.3 L 184.7 167.6 L 185.5 169.2 L 185.9 170.9 L 185.9 172.7 L 185.3 175 L 184.1 177.4 L 182.3 180 L 179.8 182.7 L 179.8 182.7 Z"/><path d="M 156.6 174.6 L 154.3 177 L 141.4 164 L 143.3 162.2 L 145.3 162 L 147.5 161.7 L 149.9 161.2 L 152.5 160.5 L 155 159.7 L 157.5 158.8 L 160 157.7 L 162.3 156.5 L 163.9 155.6 L 165.5 154.5 L 167.1 153.3 L 168.7 152 L 171.2 154.5 L 169.9 155.7 L 168.3 156.8 L 166.6 158 L 164.6 159.2 L 162.4 160.4 L 160.2 161.4 L 157.9 162.4 L 155.6 163.1 L 153.3 163.8 L 151.1 164.3 L 148.9 164.6 L 146.9 164.8 L 156.6 174.6 L 156.6 174.6 Z"/><use x="967.8" y="598.1" xlink:href="#tool-D20-pad-1052"/><path d="M 1168.5 609.9 L 1168.5 581.7 L 1178.1 581.7 L 1178.1 585.1 L 1172.2 585.1 L 1172.2 606.6 L 1172.2 606.6 L 1178.2 606.6 L 1179.6 606.6 L 1180.7 606.4 L 1181.7 606.3 L 1182.6 606.1 L 1183.3 605.8 L 1184 605.4 L 1184.6 605.1 L 1185.1 604.6 L 1185.7 603.9 L 1186.3 603.1 L 1186.8 602.1 L 1187.2 601.1 L 1187.5 599.9 L 1187.7 598.6 L 1187.9 597.2 L 1187.9 595.6 L 1187.8 593.5 L 1187.5 591.7 L 1187.1 590.1 L 1186.5 588.8 L 1185.7 587.7 L 1184.9 586.8 L 1184 586.1 L 1182.9 585.6 L 1182.1 585.4 L 1181 585.2 L 1179.7 585.1 L 1178.1 585.1 L 1178.1 581.7 L 1178.2 581.7 L 1179.7 581.8 L 1181.1 581.8 L 1182.2 582 L 1183.2 582.1 L 1184.4 582.5 L 1185.5 582.9 L 1186.4 583.5 L 1187.4 584.2 L 1188.4 585.1 L 1189.3 586.3 L 1190 587.5 L 1190.7 589 L 1191.2 590.5 L 1191.5 592.1 L 1191.7 593.8 L 1191.8 595.7 L 1191.7 597.2 L 1191.6 598.7 L 1191.4 600.1 L 1191 601.4 L 1190.6 602.5 L 1190.2 603.6 L 1189.7 604.6 L 1189.1 605.5 L 1188.5 606.2 L 1187.9 606.9 L 1187.2 607.5 L 1186.5 608 L 1185.8 608.5 L 1185 608.8 L 1184.1 609.2 L 1183.2 609.4 L 1182.2 609.6 L 1181.1 609.8 L 1179.9 609.9 L 1178.7 609.9 L 1168.5 609.9 L 1168.5 609.9 Z"/><path d="M 1195.5 596 L 1195.6 593.7 L 1195.8 591.5 L 1196.1 589.6 L 1196.2 589.2 M 1196.5 588 M 1196.2 602.9 L 1196.2 602.9 L 1195.7 599.7 L 1195.5 596 L 1195.5 596 Z"/><path stroke-width="5.9" fill="none" d="M 759.6 1079.2 L 742 1013.4 M 698.8 1095.5 L 681.1 1029.7"/><path d="M 727.4 1159.3 L 754.6 1152 L 757.8 1164.1 L 758.3 1165.8 L 758.5 1167.3 L 758.6 1168.7 L 758.6 1169.8 L 758.4 1170.8 L 758 1171.8 L 757.5 1172.7 L 756.8 1173.5 L 756 1174.3 L 755.1 1174.9 L 754.1 1175.4 L 753 1175.7 L 751.6 1176 L 750.2 1176 L 748.9 1175.7 L 747.6 1175.2 L 746.4 1174.4 L 745.3 1173.3 L 744.4 1171.8 L 744 1170.9 L 746.8 1169.6 L 747.2 1170.3 L 747.7 1170.9 L 748.2 1171.3 L 748.7 1171.7 L 749.4 1172 L 750 1172.2 L 750.7 1172.2 L 751.4 1172.2 L 752 1172 L 752.9 1171.7 L 753.7 1171.2 L 754.3 1170.6 L 754.8 1169.8 L 755.1 1168.8 L 755.3 1167.7 L 755.2 1166.4 L 754.9 1165 L 752.5 1156.4 L 743.6 1158.8 L 743.6 1158.8 L 745.6 1166.6 L 746 1167.7 L 746.4 1168.7 L 746.8 1169.6 L 744 1170.9 L 743.5 1170.1 L 743.4 1170.8 L 743.2 1171.5 L 743 1172.1 L 742.8 1172.6 L 742.2 1173.6 L 741.6 1174.6 L 740.8 1175.6 L 740 1176.6 L 733.8 1183.3 L 732.6 1178.8 L 737.3 1173.7 L 738.3 1172.6 L 739.1 1171.6 L 739.8 1170.8 L 740.3 1170 L 740.8 1169.4 L 741.2 1168.8 L 741.5 1168.2 L 741.7 1167.7 L 741.8 1167.2 L 741.9 1166.8 L 742 1166.3 L 742 1165.9 L 741.9 1165.5 L 741.8 1165 L 741.7 1164.5 L 741.6 1163.8 L 740.4 1159.7 L 728.3 1162.9 L 727.4 1159.3 L 727.4 1159.3 Z"/><path d="M 737.2 1196.2 L 736.8 1194.6 L 758.1 1188.9 L 757.4 1188.4 L 756.6 1187.8 L 755.8 1187.1 L 755 1186.3 L 754.2 1185.5 L 753.5 1184.8 L 752.9 1184 L 752.3 1183.3 L 755.5 1182.4 L 756.6 1183.6 L 757.7 1184.7 L 758.8 1185.6 L 760.1 1186.4 L 761.2 1187.2 L 762.4 1187.7 L 763.5 1188.2 L 764.5 1188.5 L 765.1 1190.6 L 744.1 1196.2 M 737.7 1197.9 Z"/><use x="782.9" y="277.9" xlink:href="#tool-D21-pad-1053"/><path d="M 893.5 110 L 869.1 96 L 873.9 87.6 L 876.8 89.3 L 873.8 94.4 L 892.5 105.1 L 892.5 105.1 L 895.5 100 L 896.1 98.8 L 896.6 97.7 L 897 96.8 L 897.2 95.9 L 897.4 95.1 L 897.4 94.4 L 897.4 93.7 L 897.2 93 L 896.9 92.1 L 896.5 91.2 L 895.9 90.3 L 895.2 89.4 L 894.3 88.5 L 893.3 87.7 L 892.2 86.8 L 890.9 86.1 L 889 85.1 L 887.3 84.4 L 885.7 84 L 884.2 83.9 L 882.9 84 L 881.7 84.3 L 880.7 84.8 L 879.7 85.4 L 879.1 86 L 878.4 86.8 L 877.6 87.9 L 876.8 89.3 L 873.9 87.6 L 874 87.5 L 874.8 86.2 L 875.5 85.1 L 876.2 84.2 L 876.8 83.4 L 877.7 82.5 L 878.6 81.8 L 879.6 81.3 L 880.6 80.8 L 882 80.4 L 883.5 80.2 L 885 80.2 L 886.5 80.3 L 888 80.7 L 889.6 81.2 L 891.2 81.9 L 892.8 82.7 L 894.2 83.6 L 895.3 84.4 L 896.4 85.3 L 897.4 86.2 L 898.2 87.2 L 898.9 88.1 L 899.5 89 L 900 90 L 900.3 90.9 L 900.6 91.8 L 900.8 92.6 L 900.9 93.5 L 900.9 94.3 L 900.9 95.2 L 900.7 96.1 L 900.5 97.1 L 900.1 98.1 L 899.7 99.1 L 899.2 100.1 L 898.6 101.2 L 893.5 110 L 893.5 110 Z"/><path d="M 895 79.7 L 893 78.5 L 891.2 77.2 L 889.8 76 L 888.5 74.8 L 887.6 73.6 L 886.8 72.3 L 886.3 71.1 L 886 69.8 L 885.9 68.5 L 886.1 67.2 L 886.5 65.9 L 887.1 64.5 L 887.7 63.6 L 888.4 62.8 L 889.1 62.1 L 889.9 61.5 L 890.7 61.1 L 891.6 60.7 L 892.6 60.5 L 893.6 60.4 L 894.6 60.4 L 895.7 60.5 L 896.9 60.7 L 898.1 61 L 899.4 61.4 L 900.9 62 L 902.4 62.8 L 904.2 63.8 L 906.2 65 L 907.9 66.2 L 909.4 67.5 L 910.6 68.7 L 911.6 69.9 L 912.3 71.1 L 912.8 72.4 L 913.2 73.7 L 913.3 75 L 913.1 76.2 L 912.7 77.6 L 912 78.9 L 911.9 79.1 L 909.6 77.5 L 910 76.4 L 910.2 75.3 L 910 74.1 L 909.6 72.9 L 908.7 71.5 L 907.2 70.1 L 905.1 68.5 L 902.4 66.8 L 899.6 65.3 L 897.2 64.3 L 895.2 63.7 L 893.6 63.7 L 892.3 63.9 L 891.2 64.4 L 890.3 65.1 L 889.6 66 L 889.1 67 L 888.9 68.1 L 889 69.2 L 889.4 70.3 L 890.4 71.8 L 891.9 73.3 L 894 74.9 L 896.8 76.6 L 896.8 76.6 L 899.6 78.1 L 902 79.2 L 904 79.7 L 905.6 79.8 L 906.9 79.6 L 908 79.1 L 908.9 78.4 L 909.6 77.5 L 911.9 79.1 L 910.9 80.5 L 909.6 81.7 L 908.1 82.5 L 906.3 83 L 903.9 83.1 L 901.2 82.5 L 898.3 81.4 L 895 79.7 L 895 79.7 Z"/><path d="M 911.6 64 L 913.1 60.7 L 914.4 61.1 L 915.5 61.2 L 916.5 61.2 L 917.5 61.1 L 918.4 60.7 L 919.2 60.1 L 919.9 59.5 L 920.5 58.7 L 921 57.5 L 921.2 56.4 L 921.2 55.3 L 920.9 54 L 920.4 52.9 L 919.7 51.8 L 918.7 50.9 L 917.5 50.1 L 916.2 49.4 L 915 49.1 L 913.8 49 L 912.6 49.2 L 911.5 49.6 L 910.5 50.2 L 909.7 51 L 908.9 52.1 L 908.6 52.8 L 908.3 53.5 L 908.1 54.3 L 908.1 55.1 L 908.1 55.8 L 908.3 56.5 L 908.5 57.2 L 908.7 57.9 L 906.8 60.5 L 895.6 50.9 L 902.6 38.7 L 905.5 40.4 L 899.8 50.1 L 905.6 55.2 L 905.6 53.7 L 905.8 52.3 L 906.2 51 L 906.8 49.8 L 907.8 48.3 L 909 47.1 L 910.5 46.2 L 912.1 45.6 L 913.8 45.3 L 915.6 45.4 L 917.3 45.9 L 919 46.7 L 920.6 47.7 L 921.8 49 L 922.9 50.4 L 923.7 52 L 924.2 54 L 924.3 56 L 923.8 58.1 L 922.9 60.1 L 921.9 61.6 L 920.7 62.8 L 919.4 63.8 L 917.9 64.4 L 916.4 64.8 L 914.8 64.8 L 913.2 64.6 L 911.6 64 L 911.6 64 Z"/><use x="277.9" y="782.9" xlink:href="#tool-D22-pad-1054"/><path d="M 98.2 873.1 L 112.3 897.5 L 104 902.3 L 102.3 899.4 L 107.4 896.4 L 96.7 877.8 L 96.7 877.8 L 91.4 880.8 L 90.3 881.5 L 89.4 882.2 L 88.6 882.8 L 87.9 883.5 L 87.4 884.1 L 87 884.7 L 86.7 885.3 L 86.5 886 L 86.3 886.9 L 86.2 887.9 L 86.3 889 L 86.4 890.1 L 86.8 891.3 L 87.2 892.5 L 87.8 893.8 L 88.5 895.2 L 89.7 896.9 L 90.8 898.4 L 92 899.5 L 93.2 900.3 L 94.4 900.9 L 95.6 901.2 L 96.7 901.4 L 97.8 901.3 L 98.7 901.1 L 99.8 900.7 L 100.9 900.1 L 102.3 899.4 L 104 902.3 L 103.9 902.3 L 102.5 903.1 L 101.4 903.7 L 100.3 904.2 L 99.4 904.5 L 98.2 904.8 L 97 904.9 L 95.9 904.9 L 94.8 904.8 L 93.4 904.4 L 92 903.9 L 90.7 903.2 L 89.5 902.3 L 88.3 901.2 L 87.2 900 L 86.2 898.6 L 85.2 897 L 84.4 895.7 L 83.8 894.3 L 83.3 893 L 83 891.7 L 82.7 890.5 L 82.6 889.4 L 82.5 888.3 L 82.6 887.2 L 82.7 886.2 L 82.9 885.3 L 83.2 884.5 L 83.5 883.7 L 84 883 L 84.5 882.2 L 85.1 881.5 L 85.7 880.8 L 86.5 880.1 L 87.4 879.4 L 88.4 878.8 L 89.4 878.1 L 98.2 873.1 L 98.2 873.1 Z"/><path d="M 63.5 893.1 L 66.5 891.4 L 77.5 910.5 L 77.9 909.6 L 78.2 908.7 L 78.7 907.7 L 79.2 906.8 L 79.8 905.8 L 80.3 904.9 L 80.9 904.1 L 81.5 903.4 L 83.1 906.3 L 82.3 907.6 L 81.5 908.9 L 80.9 910.3 L 80.4 911.7 L 80 913 L 79.8 914.3 L 79.6 915.4 L 79.6 916.5 L 77.7 917.6 L 63.5 893.1 L 63.5 893.1 Z"/><path d="M 62.8 909.6 L 64 911.6 L 64.8 913.6 L 65.5 915.4 L 65.9 917 L 66.2 918.6 L 66.2 920 L 66 921.4 L 65.7 922.6 L 65.1 923.8 L 64.3 924.9 L 63.3 925.8 L 62.1 926.6 L 61.1 927.1 L 60.1 927.5 L 59.1 927.7 L 58.1 927.8 L 57.2 927.8 L 56.2 927.6 L 55.3 927.4 L 54.4 927 L 53.5 926.4 L 52.6 925.8 L 51.7 925.1 L 50.8 924.2 L 49.9 923.2 L 48.9 921.9 L 47.9 920.5 L 46.9 918.7 L 45.8 916.7 L 44.9 914.8 L 44.2 912.9 L 43.8 911.3 L 43.6 909.8 L 43.5 908.3 L 43.7 907 L 44 905.7 L 44.6 904.5 L 45.4 903.5 L 46.4 902.5 L 47.7 901.7 L 47.9 901.6 L 49.1 904.2 L 48.2 904.9 L 47.5 905.8 L 47 906.9 L 46.8 908.2 L 46.9 909.8 L 47.4 911.8 L 48.5 914.2 L 50 917 L 51.6 919.7 L 53.2 921.8 L 54.7 923.3 L 56 924.2 L 57.3 924.6 L 58.5 924.8 L 59.6 924.6 L 60.7 924.1 L 61.6 923.5 L 62.3 922.6 L 62.7 921.6 L 62.9 920.5 L 62.8 918.7 L 62.3 916.6 L 61.2 914.2 L 59.8 911.3 L 59.8 911.3 L 58.1 908.7 L 56.5 906.5 L 55 905 L 53.7 904.2 L 52.5 903.7 L 51.3 903.6 L 50.1 903.7 L 49.1 904.2 L 47.9 901.6 L 49.4 900.9 L 51.2 900.5 L 52.9 900.5 L 54.7 901 L 56.8 902.2 L 58.8 904 L 60.8 906.4 L 62.8 909.6 L 62.8 909.6 Z"/><use x="598.1" y="967.8" xlink:href="#tool-D23-pad-1055"/><path d="M 586.3 1168.5 L 614.5 1168.5 L 614.5 1178.1 L 611.1 1178.1 L 611.1 1172.2 L 589.6 1172.2 L 589.6 1172.2 L 589.6 1178.2 L 589.6 1179.6 L 589.8 1180.7 L 589.9 1181.7 L 590.1 1182.6 L 590.4 1183.3 L 590.8 1184 L 591.1 1184.6 L 591.6 1185.1 L 592.3 1185.7 L 593.1 1186.3 L 594.1 1186.8 L 595.1 1187.2 L 596.3 1187.5 L 597.6 1187.7 L 599 1187.9 L 600.6 1187.9 L 602.7 1187.8 L 604.5 1187.5 L 606.1 1187.1 L 607.4 1186.5 L 608.5 1185.7 L 609.4 1184.9 L 610.1 1184 L 610.6 1182.9 L 610.8 1182.1 L 611 1181 L 611.1 1179.7 L 611.1 1178.1 L 614.5 1178.1 L 614.5 1178.2 L 614.4 1179.7 L 614.4 1181.1 L 614.2 1182.2 L 614.1 1183.2 L 613.7 1184.4 L 613.3 1185.5 L 612.7 1186.4 L 612 1187.4 L 611.1 1188.4 L 609.9 1189.3 L 608.7 1190 L 607.2 1190.7 L 605.7 1191.2 L 604.1 1191.5 L 602.4 1191.7 L 600.5 1191.8 L 599 1191.7 L 597.5 1191.6 L 596.1 1191.4 L 594.8 1191 L 593.7 1190.6 L 592.6 1190.2 L 591.6 1189.7 L 590.7 1189.1 L 590 1188.5 L 589.3 1187.9 L 588.7 1187.2 L 588.2 1186.5 L 587.7 1185.8 L 587.4 1185 L 587 1184.1 L 586.8 1183.2 L 586.6 1182.2 L 586.4 1181.1 L 586.3 1179.9 L 586.3 1178.7 L 586.3 1168.5 L 586.3 1168.5 Z"/><path stroke-width="5.9" fill="none" d="M 436.6 117 L 454.2 182.8 M 497.4 100.7 L 515.1 166.5"/><path d="M 468.8 36.9 L 441.6 44.2 L 438.4 32.1 L 437.9 30.4 L 437.7 28.9 L 437.6 27.5 L 437.6 26.4 L 437.8 25.4 L 438.2 24.4 L 438.7 23.5 L 439.4 22.7 L 440.2 21.9 L 441.1 21.3 L 442.1 20.8 L 443.2 20.5 L 444.6 20.2 L 446 20.2 L 447.3 20.5 L 448.6 21 L 449.8 21.8 L 450.9 22.9 L 451.8 24.4 L 452.2 25.3 L 449.4 26.6 L 449 25.9 L 448.5 25.3 L 448 24.9 L 447.5 24.5 L 446.8 24.2 L 446.2 24.1 L 445.5 24 L 444.8 24 L 444.2 24.2 L 443.3 24.5 L 442.5 25 L 441.9 25.6 L 441.4 26.4 L 441.1 27.4 L 440.9 28.5 L 441 29.8 L 441.3 31.2 L 443.7 39.8 L 452.6 37.4 L 452.6 37.4 L 450.6 29.6 L 450.2 28.5 L 449.8 27.5 L 449.4 26.6 L 452.2 25.3 L 452.7 26.1 L 452.8 25.4 L 453 24.7 L 453.2 24.1 L 453.4 23.6 L 454 22.6 L 454.6 21.6 L 455.4 20.6 L 456.2 19.6 L 462.4 12.9 L 463.6 17.4 L 458.9 22.5 L 457.9 23.6 L 457.1 24.6 L 456.4 25.4 L 455.9 26.2 L 455.4 26.8 L 455 27.4 L 454.7 28 L 454.5 28.5 L 454.4 29 L 454.3 29.4 L 454.2 29.9 L 454.2 30.3 L 454.3 30.7 L 454.4 31.2 L 454.5 31.7 L 454.6 32.4 L 455.8 36.5 L 467.9 33.3 L 468.8 36.9 L 468.8 36.9 Z"/><path d="M 448.4 14.4 L 446.1 15 L 444 15.4 L 442.1 15.5 L 440.4 15.5 L 438.8 15.3 L 437.4 15 L 436.2 14.5 L 435 13.8 L 434 12.9 L 433.3 11.9 L 432.6 10.7 L 432.1 9.3 L 431.9 8.2 L 431.8 7.2 L 431.8 6.2 L 432 5.2 L 432.2 4.3 L 432.6 3.4 L 433.1 2.6 L 433.8 1.8 L 434.5 1.1 L 435.4 0.3 L 435.9 0 M 436.3 -0.3 M 459.2 0 L 459.4 0.5 L 459.9 1.8 L 460 2.1 L 457.2 2.6 L 456.7 1.5 L 456.1 0.6 L 455.2 0 M 455.1 -0.1 M 445 0 L 444.6 0.1 L 441.5 1.1 L 439.1 2 L 437.3 3 L 436.1 4.1 L 435.3 5.2 L 434.9 6.3 L 434.8 7.4 L 434.9 8.6 L 435.3 9.7 L 435.9 10.5 L 436.8 11.2 L 437.8 11.8 L 439.6 12.1 L 441.7 12.1 L 444.4 11.7 L 447.5 11 L 447.5 11 L 450.5 10.1 L 453 9.1 L 454.8 8.1 L 456 7 L 456.7 6 L 457.2 4.9 L 457.3 3.7 L 457.2 2.6 L 460 2.1 L 460.2 3.8 L 460.1 5.5 L 459.7 7.2 L 458.8 8.8 L 457.1 10.5 L 454.8 12 L 451.9 13.3 L 448.4 14.4 L 448.4 14.4 Z"/><path stroke-width="5.9" fill="none" d="M 934 217.7 L 885.8 265.8 M 978.5 262.2 L 930.4 310.4"/><path d="M 1023.9 208.7 L 1004 188.8 L 1012.8 179.9 L 1014.1 178.7 L 1015.3 177.7 L 1016.4 177 L 1017.4 176.4 L 1018.4 176.1 L 1019.4 175.9 L 1020.4 175.9 L 1021.5 176.1 L 1022.5 176.4 L 1023.6 176.9 L 1024.5 177.5 L 1025.3 178.3 L 1026.3 179.4 L 1027 180.6 L 1027.4 181.8 L 1027.5 183.2 L 1027.4 184.7 L 1027 186.2 L 1026.2 187.7 L 1025.7 188.5 L 1023.1 186.8 L 1023.5 186.1 L 1023.8 185.3 L 1023.9 184.7 L 1024 184 L 1023.9 183.3 L 1023.7 182.7 L 1023.4 182 L 1023.1 181.5 L 1022.6 181 L 1021.9 180.4 L 1021.1 180 L 1020.2 179.7 L 1019.3 179.7 L 1018.3 179.9 L 1017.3 180.3 L 1016.2 181.1 L 1015.1 182 L 1008.8 188.3 L 1015.4 194.9 L 1015.4 194.9 L 1021.1 189.2 L 1021.9 188.4 L 1022.6 187.5 L 1023.1 186.8 L 1025.7 188.5 L 1025.1 189.3 L 1025.9 189.1 L 1026.6 188.9 L 1027.2 188.8 L 1027.7 188.7 L 1028.8 188.7 L 1030 188.8 L 1031.3 188.9 L 1032.6 189.2 L 1041.4 191.1 L 1038.1 194.4 L 1031.4 192.9 L 1030 192.6 L 1028.7 192.4 L 1027.6 192.2 L 1026.7 192.1 L 1025.9 192 L 1025.2 192 L 1024.6 192 L 1024 192.1 L 1023.6 192.2 L 1023.1 192.4 L 1022.7 192.5 L 1022.3 192.8 L 1022 193 L 1021.6 193.3 L 1021.2 193.7 L 1020.7 194.2 L 1017.7 197.2 L 1026.5 206.1 L 1023.9 208.7 L 1023.9 208.7 Z"/><path d="M 1033.1 179.8 L 1031.5 178.1 L 1030.1 176.4 L 1029 174.9 L 1028.2 173.4 L 1027.6 172 L 1027.2 170.6 L 1027 169.2 L 1027 167.9 L 1027.3 166.6 L 1027.7 165.4 L 1028.5 164.2 L 1029.4 163.1 L 1030.3 162.4 L 1031.1 161.8 L 1032 161.3 L 1032.9 160.9 L 1033.8 160.7 L 1034.8 160.6 L 1035.8 160.7 L 1036.8 160.8 L 1037.8 161.1 L 1038.8 161.4 L 1039.9 162 L 1041 162.5 L 1042.1 163.3 L 1043.4 164.2 L 1044.7 165.4 L 1046.1 166.8 L 1047.7 168.5 L 1049.1 170.1 L 1050.2 171.7 L 1051.1 173.2 L 1051.7 174.6 L 1052.1 176 L 1052.3 177.4 L 1052.2 178.7 L 1052 180 L 1051.5 181.2 L 1050.8 182.4 L 1049.8 183.5 L 1049.6 183.7 L 1047.8 181.4 L 1048.5 180.5 L 1048.9 179.5 L 1049.1 178.3 L 1049 177 L 1048.5 175.5 L 1047.4 173.7 L 1045.8 171.6 L 1043.6 169.3 L 1041.3 167.1 L 1039.2 165.5 L 1037.5 164.4 L 1035.9 163.9 L 1034.6 163.8 L 1033.4 164 L 1032.4 164.4 L 1031.4 165.1 L 1030.7 166.1 L 1030.3 167 L 1030.1 168.1 L 1030.2 169.3 L 1030.7 170.9 L 1031.8 172.8 L 1033.5 175 L 1035.7 177.3 L 1035.7 177.3 L 1038 179.4 L 1040 181.1 L 1041.8 182.2 L 1043.3 182.7 L 1044.6 182.7 L 1045.9 182.6 L 1046.9 182.2 L 1047.8 181.4 L 1049.6 183.7 L 1048.3 184.7 L 1046.7 185.5 L 1045 185.9 L 1043.2 185.9 L 1040.9 185.3 L 1038.5 184.1 L 1035.9 182.3 L 1033.1 179.8 L 1033.1 179.8 Z"/><path d="M 1066.3 166.3 L 1061.5 161.5 L 1052.9 170.2 L 1050.6 167.9 L 1047.7 150.7 L 1050.3 150.3 L 1053.1 165.5 L 1059.3 159.3 L 1059.3 159.3 L 1050.3 150.3 L 1047.7 150.7 L 1046.8 145.9 L 1048.8 143.9 L 1061.7 156.8 L 1064.4 154.1 L 1066.6 156.4 L 1064 159.1 L 1068.7 163.8 L 1066.3 166.3 L 1066.3 166.3 Z"/><use x="918.3" y="782.9" xlink:href="#tool-D24-pad-1056"/><path d="M 1086.2 893.5 L 1100.2 869.1 L 1108.6 873.9 L 1106.9 876.8 L 1101.8 873.8 L 1091.1 892.5 L 1091.1 892.5 L 1096.2 895.5 L 1097.4 896.1 L 1098.5 896.6 L 1099.4 897 L 1100.3 897.2 L 1101.1 897.4 L 1101.8 897.4 L 1102.5 897.4 L 1103.2 897.2 L 1104.1 896.9 L 1105 896.5 L 1105.9 895.9 L 1106.8 895.2 L 1107.7 894.3 L 1108.5 893.3 L 1109.4 892.2 L 1110.1 890.9 L 1111.1 889 L 1111.8 887.3 L 1112.2 885.7 L 1112.3 884.2 L 1112.2 882.9 L 1111.9 881.7 L 1111.4 880.7 L 1110.8 879.7 L 1110.2 879.1 L 1109.4 878.4 L 1108.3 877.6 L 1106.9 876.8 L 1108.6 873.9 L 1108.7 874 L 1110 874.8 L 1111.1 875.5 L 1112 876.2 L 1112.8 876.8 L 1113.7 877.7 L 1114.4 878.6 L 1114.9 879.6 L 1115.4 880.6 L 1115.8 882 L 1116 883.5 L 1116 885 L 1115.9 886.5 L 1115.5 888 L 1115 889.6 L 1114.3 891.2 L 1113.5 892.8 L 1112.6 894.2 L 1111.8 895.3 L 1110.9 896.4 L 1110 897.4 L 1109 898.2 L 1108.1 898.9 L 1107.2 899.5 L 1106.2 900 L 1105.3 900.3 L 1104.4 900.6 L 1103.6 900.8 L 1102.7 900.9 L 1101.9 900.9 L 1101 900.9 L 1100.1 900.7 L 1099.1 900.5 L 1098.1 900.1 L 1097.1 899.7 L 1096.1 899.2 L 1095 898.6 L 1086.2 893.5 L 1086.2 893.5 Z"/><path d="M 1116.5 895 L 1117.7 893 L 1119 891.2 L 1120.2 889.8 L 1121.4 888.5 L 1122.6 887.6 L 1123.9 886.8 L 1125.1 886.3 L 1126.4 886 L 1127.7 885.9 L 1129 886.1 L 1130.3 886.5 L 1131.7 887.1 L 1132.6 887.7 L 1133.4 888.4 L 1134.1 889.1 L 1134.7 889.9 L 1135.1 890.7 L 1135.5 891.6 L 1135.7 892.6 L 1135.8 893.6 L 1135.8 894.6 L 1135.7 895.7 L 1135.5 896.9 L 1135.2 898.1 L 1134.8 899.4 L 1134.2 900.9 L 1133.4 902.4 L 1132.4 904.2 L 1131.2 906.2 L 1130 907.9 L 1128.7 909.4 L 1127.5 910.6 L 1126.3 911.6 L 1125.1 912.3 L 1123.8 912.8 L 1122.5 913.2 L 1121.2 913.3 L 1120 913.1 L 1118.6 912.7 L 1117.3 912 L 1117.1 911.9 L 1118.7 909.6 L 1119.8 910 L 1120.9 910.2 L 1122.1 910 L 1123.3 909.6 L 1124.7 908.7 L 1126.1 907.2 L 1127.7 905.1 L 1129.4 902.4 L 1130.9 899.6 L 1131.9 897.2 L 1132.5 895.2 L 1132.5 893.6 L 1132.3 892.3 L 1131.8 891.2 L 1131.1 890.3 L 1130.2 889.6 L 1129.2 889.1 L 1128.1 888.9 L 1127 889 L 1125.9 889.4 L 1124.4 890.4 L 1122.9 891.9 L 1121.3 894 L 1119.6 896.8 L 1119.6 896.8 L 1118.1 899.6 L 1117 902 L 1116.5 904 L 1116.4 905.6 L 1116.6 906.9 L 1117.1 908 L 1117.8 908.9 L 1118.7 909.6 L 1117.1 911.9 L 1115.7 910.9 L 1114.5 909.6 L 1113.7 908.1 L 1113.2 906.3 L 1113.1 903.9 L 1113.7 901.2 L 1114.8 898.3 L 1116.5 895 L 1116.5 895 Z"/><path d="M 1145.9 924.2 L 1144.3 927.1 L 1128.1 917.7 L 1128.5 917.2 L 1128.8 916.7 L 1129.2 916.3 L 1129.7 915.9 L 1130.5 915.3 L 1131.4 914.7 L 1132.4 914.2 L 1133.5 913.8 L 1134.8 913.4 L 1136.2 913 L 1137.8 912.7 L 1139.6 912.4 L 1142.3 911.8 L 1144.6 911.3 L 1146.5 910.8 L 1147.9 910.3 L 1149.1 909.7 L 1150.1 909 L 1150.9 908.3 L 1151.4 907.5 L 1151.8 906.6 L 1152.1 905.7 L 1152.1 904.7 L 1151.9 903.7 L 1151.5 902.8 L 1151 902 L 1150.2 901.2 L 1149.3 900.6 L 1148.2 900.1 L 1147.2 899.8 L 1146.1 899.7 L 1145.1 899.9 L 1144.1 900.3 L 1143.2 900.9 L 1142.4 901.7 L 1141.7 902.7 L 1138.8 900.6 L 1140 899.2 L 1141.3 898 L 1142.7 897.2 L 1144.2 896.8 L 1145.8 896.6 L 1147.4 896.8 L 1149 897.3 L 1150.8 898.1 L 1152.4 899.2 L 1153.7 900.5 L 1154.6 901.8 L 1155.2 903.3 L 1155.5 904.9 L 1155.5 906.4 L 1155.1 907.9 L 1154.5 909.3 L 1154 910 L 1153.5 910.7 L 1152.9 911.3 L 1152.2 911.8 L 1151.4 912.4 L 1150.6 912.9 L 1149.6 913.3 L 1148.5 913.7 L 1147.2 914.1 L 1145.6 914.5 L 1143.7 914.9 L 1141.4 915.3 L 1139.6 915.7 L 1138.1 915.9 L 1137 916.2 L 1136.2 916.4 L 1135.6 916.6 L 1135 916.8 L 1134.5 917 L 1134 917.3 L 1145.9 924.2 L 1145.9 924.2 Z"/><path stroke-width="5.9" fill="none" d="M 497.4 1095.5 L 515.1 1029.7 M 436.6 1079.2 L 454.2 1013.4"/><path d="M 446 1153.2 L 473.2 1160.5 L 470 1172.5 L 469.5 1174.2 L 468.9 1175.7 L 468.4 1176.9 L 467.8 1177.9 L 467.1 1178.7 L 466.3 1179.3 L 465.4 1179.8 L 464.4 1180.2 L 463.3 1180.5 L 462.2 1180.5 L 461.1 1180.5 L 460 1180.3 L 458.6 1179.8 L 457.4 1179.1 L 456.4 1178.2 L 455.6 1177.1 L 455 1175.8 L 454.6 1174.2 L 454.5 1172.5 L 454.6 1171.6 L 457.6 1171.8 L 457.6 1172.6 L 457.7 1173.3 L 458 1174 L 458.3 1174.6 L 458.7 1175.1 L 459.2 1175.6 L 459.7 1176 L 460.3 1176.3 L 461 1176.5 L 461.9 1176.7 L 462.8 1176.6 L 463.7 1176.4 L 464.5 1176 L 465.3 1175.3 L 465.9 1174.4 L 466.5 1173.3 L 466.9 1171.9 L 469.2 1163.3 L 460.2 1160.9 L 460.2 1160.9 L 458.2 1168.6 L 457.9 1169.8 L 457.7 1170.9 L 457.6 1171.8 L 454.6 1171.6 L 454.6 1170.6 L 454.1 1171.2 L 453.6 1171.7 L 453.1 1172.1 L 452.7 1172.4 L 451.7 1173 L 450.6 1173.5 L 449.5 1174 L 448.3 1174.4 L 439.6 1177.2 L 440.8 1172.6 L 447.4 1170.5 L 448.8 1170.1 L 450 1169.7 L 451 1169.3 L 451.8 1169 L 452.6 1168.6 L 453.2 1168.3 L 453.7 1167.9 L 454.2 1167.6 L 454.5 1167.3 L 454.8 1166.9 L 455.1 1166.6 L 455.3 1166.2 L 455.5 1165.8 L 455.7 1165.4 L 455.8 1164.8 L 456 1164.2 L 457.1 1160 L 445 1156.8 L 446 1153.2 L 446 1153.2 Z"/><path d="M 435.7 1191.8 L 436.5 1188.5 L 457.8 1194.2 L 457.4 1193.4 L 457.1 1192.5 L 456.7 1191.5 L 456.4 1190.4 L 456.1 1189.3 L 455.9 1188.3 L 455.7 1187.3 L 455.6 1186.4 L 458.8 1187.3 L 459.2 1188.8 L 459.6 1190.3 L 460.1 1191.7 L 460.7 1193.1 L 461.4 1194.3 L 462.1 1195.3 L 462.8 1196.2 L 462.8 1196.2 M 463.6 1197 M 451.9 1196.2 L 435.7 1191.8 L 435.7 1191.8 Z"/><path stroke-width="5.9" fill="none" d="M 117 759.6 L 182.8 742 M 100.7 698.8 L 166.5 681.1"/><path d="M 43.7 725.5 L 51 752.8 L 38.9 756 L 37.2 756.4 L 35.7 756.7 L 34.4 756.8 L 33.2 756.8 L 32.2 756.6 L 31.2 756.2 L 30.3 755.7 L 29.5 755 L 28.7 754.2 L 28.1 753.3 L 27.6 752.3 L 27.3 751.2 L 27 749.8 L 27 748.4 L 27.3 747.1 L 27.8 745.8 L 28.7 744.6 L 29.8 743.5 L 31.2 742.6 L 32.1 742.2 L 33.4 744.9 L 32.7 745.3 L 32.2 745.8 L 31.7 746.3 L 31.3 746.9 L 31.1 747.5 L 30.9 748.2 L 30.8 748.9 L 30.9 749.5 L 31 750.2 L 31.3 751.1 L 31.8 751.8 L 32.4 752.5 L 33.2 753 L 34.2 753.3 L 35.3 753.5 L 36.6 753.3 L 38 753.1 L 46.6 750.7 L 44.2 741.7 L 44.2 741.7 L 36.4 743.8 L 35.3 744.2 L 34.3 744.5 L 33.4 744.9 L 32.1 742.2 L 32.9 741.7 L 32.2 741.6 L 31.5 741.4 L 30.9 741.2 L 30.4 740.9 L 29.4 740.4 L 28.5 739.7 L 27.4 739 L 26.4 738.1 L 19.7 732 L 24.2 730.8 L 29.4 735.5 L 30.5 736.4 L 31.4 737.2 L 32.2 737.9 L 33 738.5 L 33.7 739 L 34.2 739.4 L 34.8 739.7 L 35.3 739.9 L 35.8 740 L 36.2 740.1 L 36.7 740.1 L 37.2 740.1 L 37.5 740.1 L 38 740 L 38.5 739.9 L 39.2 739.7 L 43.4 738.6 L 40.1 726.5 L 43.7 725.5 L 43.7 725.5 Z"/><path d="M 21.2 746 L 21.8 748.3 L 22.2 750.4 L 22.4 752.3 L 22.4 754 L 22.2 755.5 L 21.8 757 L 21.3 758.2 L 20.6 759.3 L 19.8 760.3 L 18.7 761.1 L 17.5 761.8 L 16.1 762.2 L 15 762.5 L 14 762.6 L 13 762.5 L 12 762.4 L 11.1 762.1 L 10.2 761.7 L 9.4 761.2 L 8.6 760.6 L 7.9 759.8 L 7.2 759 L 6.5 758.1 L 5.9 757 L 5.2 755.8 L 4.6 754.3 L 4.1 752.6 L 3.5 750.7 L 3 748.4 L 2.6 746.3 L 2.4 744.4 L 2.4 742.7 L 2.6 741.2 L 2.9 739.8 L 3.5 738.5 L 4.2 737.4 L 5 736.4 L 6.1 735.6 L 7.3 735 L 8.7 734.4 L 8.9 734.4 L 9.4 737.2 L 8.3 737.6 L 7.4 738.3 L 6.7 739.3 L 6.1 740.5 L 5.8 742 L 5.9 744.1 L 6.2 746.7 L 7 749.8 L 7.9 752.9 L 8.8 755.3 L 9.9 757.1 L 10.9 758.3 L 12 759 L 13.1 759.5 L 14.2 759.6 L 15.4 759.5 L 16.5 759 L 17.4 758.4 L 18.1 757.6 L 18.6 756.5 L 18.9 754.8 L 18.9 752.7 L 18.5 750 L 17.8 746.9 L 17.8 746.9 L 16.9 743.8 L 15.9 741.4 L 14.9 739.6 L 13.9 738.4 L 12.8 737.6 L 11.7 737.2 L 10.5 737 L 9.4 737.2 L 8.9 734.4 L 10.6 734.1 L 12.4 734.2 L 14 734.7 L 15.6 735.6 L 17.3 737.3 L 18.8 739.6 L 20.1 742.4 L 21.2 746 L 21.2 746 Z"/><path d="M 0 753.3 L 0.7 754.5 L 1.4 756.4 L 1.8 758.4 L 1.8 760.3 L 1.4 762 L 0.7 763.7 L 0 764.7 M -0.3 765.1 Z"/><path stroke-width="5.9" fill="none" d="M 978.5 934 L 930.4 885.8 M 934 978.5 L 885.8 930.4"/><path d="M 987.5 1004.2 L 1007.4 984.3 L 1016.3 993.1 L 1017.5 994.4 L 1018.5 995.6 L 1019.2 996.7 L 1019.8 997.7 L 1020.1 998.7 L 1020.3 999.7 L 1020.3 1000.7 L 1020.1 1001.8 L 1019.8 1002.9 L 1019.3 1003.9 L 1018.7 1004.8 L 1017.9 1005.7 L 1016.8 1006.6 L 1015.6 1007.3 L 1014.4 1007.7 L 1013 1007.9 L 1011.5 1007.7 L 1010 1007.3 L 1008.5 1006.5 L 1007.7 1006 L 1009.4 1003.5 L 1010.1 1003.8 L 1010.9 1004.1 L 1011.5 1004.2 L 1012.2 1004.3 L 1012.9 1004.2 L 1013.5 1004 L 1014.2 1003.7 L 1014.7 1003.4 L 1015.2 1002.9 L 1015.8 1002.2 L 1016.2 1001.4 L 1016.5 1000.5 L 1016.5 999.6 L 1016.3 998.6 L 1015.9 997.6 L 1015.1 996.5 L 1014.2 995.4 L 1007.9 989.1 L 1001.3 995.7 L 1001.3 995.7 L 1007 1001.4 L 1007.8 1002.2 L 1008.7 1002.9 L 1009.4 1003.5 L 1007.7 1006 L 1006.9 1005.5 L 1007.1 1006.2 L 1007.3 1006.9 L 1007.4 1007.5 L 1007.5 1008.1 L 1007.5 1009.2 L 1007.4 1010.3 L 1007.3 1011.6 L 1007 1012.9 L 1005.1 1021.8 L 1001.8 1018.5 L 1003.3 1011.7 L 1003.6 1010.3 L 1003.8 1009 L 1004 1007.9 L 1004.1 1007 L 1004.2 1006.2 L 1004.2 1005.5 L 1004.2 1004.9 L 1004.1 1004.4 L 1004 1003.9 L 1003.8 1003.5 L 1003.7 1003 L 1003.4 1002.6 L 1003.2 1002.3 L 1002.9 1002 L 1002.5 1001.5 L 1002 1001.1 L 999 998 L 990.1 1006.8 L 987.5 1004.2 L 987.5 1004.2 Z"/><path d="M 1016.4 1013.5 L 1018.1 1011.8 L 1019.8 1010.5 L 1021.3 1009.3 L 1022.8 1008.5 L 1024.2 1007.9 L 1025.6 1007.5 L 1027 1007.3 L 1028.3 1007.3 L 1029.6 1007.6 L 1030.8 1008.1 L 1032 1008.8 L 1033.1 1009.8 L 1033.8 1010.6 L 1034.4 1011.4 L 1034.9 1012.3 L 1035.3 1013.2 L 1035.5 1014.2 L 1035.6 1015.1 L 1035.5 1016.1 L 1035.4 1017.1 L 1035.1 1018.1 L 1034.8 1019.2 L 1034.2 1020.2 L 1033.7 1021.3 L 1032.9 1022.4 L 1032 1023.7 L 1030.8 1025 L 1029.4 1026.4 L 1027.7 1028.1 L 1026.1 1029.4 L 1024.5 1030.5 L 1023 1031.4 L 1021.6 1032 L 1020.2 1032.4 L 1018.8 1032.6 L 1017.5 1032.5 L 1016.2 1032.3 L 1015 1031.8 L 1013.8 1031.1 L 1012.7 1030.1 L 1012.5 1029.9 L 1014.8 1028.1 L 1015.7 1028.8 L 1016.7 1029.2 L 1017.9 1029.4 L 1019.2 1029.3 L 1020.7 1028.8 L 1022.5 1027.7 L 1024.6 1026.1 L 1026.9 1023.9 L 1029.1 1021.6 L 1030.7 1019.6 L 1031.8 1017.8 L 1032.3 1016.2 L 1032.4 1015 L 1032.2 1013.7 L 1031.8 1012.7 L 1031.1 1011.8 L 1030.1 1011.1 L 1029.2 1010.6 L 1028.1 1010.4 L 1026.9 1010.5 L 1025.3 1011.1 L 1023.4 1012.2 L 1021.2 1013.8 L 1018.9 1016 L 1018.9 1016 L 1016.8 1018.3 L 1015.1 1020.3 L 1014 1022.1 L 1013.5 1023.7 L 1013.5 1025 L 1013.6 1026.2 L 1014 1027.2 L 1014.8 1028.1 L 1012.5 1029.9 L 1011.5 1028.6 L 1010.7 1027 L 1010.3 1025.3 L 1010.3 1023.5 L 1010.9 1021.2 L 1012.1 1018.8 L 1013.9 1016.2 L 1016.4 1013.5 L 1016.4 1013.5 Z"/><path d="M 1031.3 1048 L 1028.8 1045.5 L 1044.4 1030 L 1043.5 1029.9 L 1042.5 1029.8 L 1041.5 1029.6 L 1040.4 1029.3 L 1039.3 1029 L 1038.3 1028.7 L 1037.4 1028.3 L 1036.6 1028 L 1039 1025.6 L 1040.5 1026.1 L 1041.9 1026.5 L 1043.4 1026.8 L 1044.9 1026.9 L 1046.2 1026.9 L 1047.5 1026.8 L 1048.7 1026.7 L 1049.7 1026.4 L 1051.3 1028 L 1031.3 1048 L 1031.3 1048 Z"/></g></g><use class="pcb_board-cf" mask="url(#pcb_bottom-cu_finish-mask)" xlink:href="#pcb_bottom-sm"/></g></g></svg>