<?xml-stylesheet href="https://s3.amazonaws.com/maker.works.boards/css/blackpcb_bsm.css" type="text/css"?><svg xmlns="http://www.w3.org/2000/svg" version="1.1" xmlns:xlink="http://www.w3.org/1999/xlink" width="1.1259850000000002in" height="1.1259700000000001in" viewBox="35.114999999999995 35.114999999999995 1125.9850000000001 1125.97" stroke-linecap="round" stroke-linejoin="round" stroke-width="0" stroke="#000"><defs><rect x="-16.1555" y="-32.888" width="32.311" height="65.776" transform="rotate(165)" id="tool-D10-pad-1057"/><rect x="-19.685" y="-31.496" width="39.37" height="62.992" transform="rotate(210)" id="tool-D11-pad-1058"/><rect x="-29.5275" y="-10.827" width="59.055" height="21.654" transform="rotate(225)" id="tool-D12-pad-1059"/><rect x="-10.827" y="-29.5275" width="21.654" height="59.055" transform="rotate(225)" id="tool-D13-pad-1060"/><rect x="-16.1555" y="-32.888" width="32.311" height="65.776" transform="rotate(315)" id="tool-D14-pad-1061"/><rect x="-19.685" y="-31.496" width="39.37" height="62.992" transform="rotate(59)" id="tool-D15-pad-1062"/><rect x="-19.685" y="-31.496" width="39.37" height="62.992" transform="rotate(180)" id="tool-D16-pad-1063"/><rect x="-19.685" y="-31.496" width="39.37" height="62.992" transform="rotate(270)" id="tool-D17-pad-1064"/><rect x="-16.1555" y="-32.888" width="32.311" height="65.776" transform="rotate(104)" id="tool-D18-pad-1065"/><rect x="-16.1555" y="-32.888" width="32.311" height="65.776" transform="rotate(14)" id="tool-D19-pad-1066"/><rect x="-16.1555" y="-32.888" width="32.311" height="65.776" transform="rotate(194)" id="tool-D20-pad-1067"/><rect x="-19.685" y="-31.496" width="39.37" height="62.992" transform="rotate(239)" id="tool-D21-pad-1068"/><rect x="-19.685" y="-31.496" width="39.37" height="62.992" transform="rotate(329)" id="tool-D22-pad-1069"/><rect x="-19.685" y="-31.496" width="39.37" height="62.992" transform="rotate(120)" id="tool-D23-pad-1070"/><rect x="-16.1555" y="-32.888" width="32.311" height="65.776" transform="rotate(45)" id="tool-D24-pad-1071"/><rect x="-19.7" y="-31.5" width="39.4" height="63" id="tool-D25-pad-1072"/><rect x="-16.1555" y="-32.888" width="32.311" height="65.776" transform="rotate(255)" id="tool-D26-pad-1073"/><rect x="-19.685" y="-31.496" width="39.37" height="62.992" transform="rotate(300)" id="tool-D27-pad-1074"/><rect x="-19.685" y="-31.496" width="39.37" height="62.992" transform="rotate(149)" id="tool-D28-pad-1075"/><rect x="-19.685" y="-31.496" width="39.37" height="62.992" transform="rotate(90)" id="tool-D29-pad-1076"/><rect x="-16.1555" y="-32.888" width="32.311" height="65.776" transform="rotate(75)" id="tool-D30-pad-1077"/><rect x="-16.1555" y="-32.888" width="32.311" height="65.776" transform="rotate(135)" id="tool-D31-pad-1078"/><rect x="-19.685" y="-31.496" width="39.37" height="62.992" transform="rotate(30)" id="tool-D32-pad-1079"/><rect x="-16.1555" y="-32.888" width="32.311" height="65.776" transform="rotate(284)" id="tool-D35-pad-1082"/><rect x="-16.1555" y="-32.888" width="32.311" height="65.776" transform="rotate(345)" id="tool-D36-pad-1083"/><rect x="-16.1555" y="-32.888" width="32.311" height="65.776" transform="rotate(225)" id="tool-D37-pad-1084"/></defs><g fill="currentColor" stroke="currentColor" transform="translate(0,1196.2) scale(1,-1)"><use x="1114.3" y="459.8" xlink:href="#tool-D10-pad-1057"/><use x="994.6" y="491.9" xlink:href="#tool-D10-pad-1057"/><use x="250.3" y="397.3" xlink:href="#tool-D11-pad-1058"/><use x="127.6" y="326.4" xlink:href="#tool-D11-pad-1058"/><use x="637.1" y="793" xlink:href="#tool-D12-pad-1059"/><use x="659.4" y="770.7" xlink:href="#tool-D12-pad-1059"/><use x="681.6" y="748.4" xlink:href="#tool-D12-pad-1059"/><use x="703.9" y="726.2" xlink:href="#tool-D12-pad-1059"/><use x="726.2" y="703.9" xlink:href="#tool-D12-pad-1059"/><use x="748.4" y="681.6" xlink:href="#tool-D12-pad-1059"/><use x="770.7" y="659.4" xlink:href="#tool-D12-pad-1059"/><use x="793" y="637.1" xlink:href="#tool-D12-pad-1059"/><use x="559.1" y="403.2" xlink:href="#tool-D12-pad-1059"/><use x="536.8" y="425.5" xlink:href="#tool-D12-pad-1059"/><use x="514.6" y="447.8" xlink:href="#tool-D12-pad-1059"/><use x="492.3" y="470" xlink:href="#tool-D12-pad-1059"/><use x="470" y="492.3" xlink:href="#tool-D12-pad-1059"/><use x="447.8" y="514.6" xlink:href="#tool-D12-pad-1059"/><use x="425.5" y="536.8" xlink:href="#tool-D12-pad-1059"/><use x="403.2" y="559.1" xlink:href="#tool-D12-pad-1059"/><use x="793" y="559.1" xlink:href="#tool-D13-pad-1060"/><use x="770.7" y="536.8" xlink:href="#tool-D13-pad-1060"/><use x="748.4" y="514.6" xlink:href="#tool-D13-pad-1060"/><use x="726.2" y="492.3" xlink:href="#tool-D13-pad-1060"/><use x="703.9" y="470" xlink:href="#tool-D13-pad-1060"/><use x="681.6" y="447.8" xlink:href="#tool-D13-pad-1060"/><use x="659.4" y="425.5" xlink:href="#tool-D13-pad-1060"/><use x="637.1" y="403.2" xlink:href="#tool-D13-pad-1060"/><use x="403.2" y="637.1" xlink:href="#tool-D13-pad-1060"/><use x="425.5" y="659.4" xlink:href="#tool-D13-pad-1060"/><use x="447.8" y="681.6" xlink:href="#tool-D13-pad-1060"/><use x="470" y="703.9" xlink:href="#tool-D13-pad-1060"/><use x="492.3" y="726.2" xlink:href="#tool-D13-pad-1060"/><use x="514.6" y="748.4" xlink:href="#tool-D13-pad-1060"/><use x="536.8" y="770.7" xlink:href="#tool-D13-pad-1060"/><use x="559.1" y="793" xlink:href="#tool-D13-pad-1060"/><use x="220.2" y="976" xlink:href="#tool-D14-pad-1061"/><use x="307.9" y="888.3" xlink:href="#tool-D14-pad-1061"/><use x="798.9" y="945.9" xlink:href="#tool-D15-pad-1062"/><use x="869.8" y="1068.6" xlink:href="#tool-D15-pad-1062"/><use x="196.5" y="598.1" xlink:href="#tool-D16-pad-1063"/><use x="54.8" y="598.1" xlink:href="#tool-D16-pad-1063"/><use x="598.1" y="196.5" xlink:href="#tool-D17-pad-1064"/><use x="598.1" y="54.8" xlink:href="#tool-D17-pad-1064"/><use x="736.4" y="81.9" xlink:href="#tool-D18-pad-1065"/><use x="704.3" y="201.6" xlink:href="#tool-D18-pad-1065"/><use x="81.9" y="459.8" xlink:href="#tool-D19-pad-1066"/><use x="201.6" y="491.9" xlink:href="#tool-D19-pad-1066"/><use x="1114.3" y="736.4" xlink:href="#tool-D20-pad-1067"/><use x="994.6" y="704.3" xlink:href="#tool-D20-pad-1067"/><use x="397.3" y="250.3" xlink:href="#tool-D21-pad-1068"/><use x="326.4" y="127.6" xlink:href="#tool-D21-pad-1068"/><use x="945.9" y="397.3" xlink:href="#tool-D22-pad-1069"/><use x="1068.6" y="326.4" xlink:href="#tool-D22-pad-1069"/><use x="397.3" y="945.9" xlink:href="#tool-D23-pad-1070"/><use x="326.4" y="1068.6" xlink:href="#tool-D23-pad-1070"/><use x="220.2" y="220.2" xlink:href="#tool-D24-pad-1071"/><use x="307.9" y="307.9" xlink:href="#tool-D24-pad-1071"/><use x="999.7" y="598.1" xlink:href="#tool-D25-pad-1072"/><use x="1141.4" y="598.1" xlink:href="#tool-D25-pad-1072"/><use x="736.4" y="1114.3" xlink:href="#tool-D26-pad-1073"/><use x="704.3" y="994.6" xlink:href="#tool-D26-pad-1073"/><use x="798.9" y="250.3" xlink:href="#tool-D27-pad-1074"/><use x="869.8" y="127.6" xlink:href="#tool-D27-pad-1074"/><use x="250.3" y="798.9" xlink:href="#tool-D28-pad-1075"/><use x="127.6" y="869.8" xlink:href="#tool-D28-pad-1075"/><use x="598.1" y="999.7" xlink:href="#tool-D29-pad-1076"/><use x="598.1" y="1141.4" xlink:href="#tool-D29-pad-1076"/><use x="459.8" y="81.9" xlink:href="#tool-D30-pad-1077"/><use x="491.9" y="201.6" xlink:href="#tool-D30-pad-1077"/><use x="976" y="220.2" xlink:href="#tool-D31-pad-1078"/><use x="888.3" y="307.9" xlink:href="#tool-D31-pad-1078"/><use x="945.9" y="798.9" xlink:href="#tool-D32-pad-1079"/><use x="1068.6" y="869.8" xlink:href="#tool-D32-pad-1079"/><use x="459.8" y="1114.3" xlink:href="#tool-D35-pad-1082"/><use x="491.9" y="994.6" xlink:href="#tool-D35-pad-1082"/><use x="81.9" y="736.4" xlink:href="#tool-D36-pad-1083"/><use x="201.6" y="704.3" xlink:href="#tool-D36-pad-1083"/><use x="976" y="976" xlink:href="#tool-D37-pad-1084"/><use x="888.3" y="888.3" xlink:href="#tool-D37-pad-1084"/></g></svg>