<?xml-stylesheet href="https://s3.amazonaws.com/maker.works.boards/css/blackpcb.css" type="text/css"?><svg xmlns="http://www.w3.org/2000/svg" version="1.1" xmlns:xlink="http://www.w3.org/1999/xlink" stroke-width="0" stroke-linecap="round" stroke-linejoin="round" width="1.1812in" height="1.1812in" id="pcb_top" viewBox="7.5 7.5 1181.2 1181.2"><defs><circle cx="0" cy="0" r="41.5" id="tool-T10-pad-1000"/><circle cx="0" cy="0" r="41.5" id="tool-T11-pad-1001"/><circle cx="0" cy="0" r="41.5" id="tool-T12-pad-1002"/><circle cx="0" cy="0" r="41.5" id="tool-T13-pad-1003"/><circle cx="0" cy="0" r="41.5" id="tool-T14-pad-1004"/><circle cx="0" cy="0" r="41.5" id="tool-T15-pad-1005"/><circle cx="0" cy="0" r="41.5" id="tool-T16-pad-1006"/><circle cx="0" cy="0" r="41.5" id="tool-T17-pad-1007"/><circle cx="0" cy="0" r="41.5" id="tool-T18-pad-1008"/><circle cx="0" cy="0" r="41.5" id="tool-T19-pad-1009"/><circle cx="0" cy="0" r="41.5" id="tool-T20-pad-1010"/><circle cx="0" cy="0" r="41.5" id="tool-T21-pad-1011"/><circle cx="0" cy="0" r="41.5" id="tool-T22-pad-1012"/><circle cx="0" cy="0" r="21.5" id="tool-T23-pad-1013"/><g id="pcb_top-cu" fill="currentColor" stroke="currentColor"></g><mask id="pcb_top_mech-mask" fill="#fff" stroke="#fff" fill-rule="evenodd"><path stroke-width="0" d="M 7.5 7.5 L 7.5 1188.7 L 1188.7 1188.7 L 1188.7 7.5 Z"/><g id="pcb_top-drl" fill="#000" stroke="#000"><use x="1109.9" y="1109.9" xlink:href="#tool-T10-pad-1000"/><use x="86.3" y="1109.9" xlink:href="#tool-T10-pad-1000"/><use x="86.3" y="86.3" xlink:href="#tool-T10-pad-1000"/><use x="1109.9" y="86.3" xlink:href="#tool-T10-pad-1000"/><use x="189" y="361.9" xlink:href="#tool-T11-pad-1001"/><use x="834.3" y="1007.2" xlink:href="#tool-T12-pad-1002"/><use x="125.7" y="598.1" xlink:href="#tool-T13-pad-1003"/><use x="598.1" y="125.7" xlink:href="#tool-T14-pad-1004"/><use x="361.9" y="189" xlink:href="#tool-T15-pad-1005"/><use x="1007.2" y="361.9" xlink:href="#tool-T16-pad-1006"/><use x="361.9" y="1007.2" xlink:href="#tool-T17-pad-1007"/><use x="1070.5" y="598.1" xlink:href="#tool-T18-pad-1008"/><use x="834.3" y="189" xlink:href="#tool-T19-pad-1009"/><use x="189" y="834.3" xlink:href="#tool-T20-pad-1010"/><use x="598.1" y="1070.5" xlink:href="#tool-T21-pad-1011"/><use x="1007.2" y="834.3" xlink:href="#tool-T22-pad-1012"/><use x="1385.5" y="848.1" xlink:href="#tool-T23-pad-1013"/><use x="1385.5" y="748.1" xlink:href="#tool-T23-pad-1013"/><use x="1385.5" y="648.1" xlink:href="#tool-T23-pad-1013"/><use x="1385.5" y="548.1" xlink:href="#tool-T23-pad-1013"/><use x="1385.5" y="448.1" xlink:href="#tool-T23-pad-1013"/><use x="1385.5" y="348.1" xlink:href="#tool-T23-pad-1013"/></g></mask></defs><g mask="url(#pcb_top_mech-mask)" transform="translate(0,1196.2) scale(1,-1)"><rect x="7.5" y="7.5" width="1181.2" height="1181.2" fill="currentColor" class="pcb_board-fr4"/><use class="pcb_board-cu" xlink:href="#pcb_top-cu"/><g><defs><g id="pcb_top-sm" fill="currentColor" stroke="currentColor"></g><mask id="pcb_top-sm_mask" color="#000"><rect x="7.5" y="7.5" width="1181.2" height="1181.2" fill="#fff"/><use xlink:href="#pcb_top-sm"/></mask><mask id="pcb_top-cu_finish-mask" color="#fff"><use xlink:href="#pcb_top-cu"/></mask></defs><g mask="url(#pcb_top-sm_mask)"><rect x="7.5" y="7.5" width="1181.2" height="1181.2" fill="currentColor" class="pcb_board-sm"/><g id="pcb_top-ss" class="pcb_board-ss" fill="currentColor" stroke="currentColor"></g></g><use class="pcb_board-cf" mask="url(#pcb_top-cu_finish-mask)" xlink:href="#pcb_top-sm"/></g></g></svg>