%FSLAX33Y33*%
%MOMM*%
%ADD10C,0.15*%
%ADD11C,0.25*%
D10*
%LNtop silkscreen_traces*%
%LNtop silkscreen component 839ca551680f491d*%
G01*
X18549Y-7821D02*
X18549Y7821D01*
X21451Y7821*
X21451Y-7821*
X18549Y-7821*
D11*
X18200Y6500D03*
G36*
X18578Y8274D02*
X18663Y8286D01*
X18666Y8248D01*
X18672Y8217D01*
X18682Y8192D01*
X18694Y8174D01*
X18709Y8160D01*
X18726Y8151D01*
X18747Y8145D01*
X18770Y8143D01*
X18787Y8144D01*
X18803Y8148D01*
X18817Y8153D01*
X18831Y8160D01*
X18843Y8169D01*
X18853Y8179D01*
X18861Y8191D01*
X18867Y8204D01*
X18871Y8220D01*
X18874Y8241D01*
X18876Y8265D01*
X18876Y8294D01*
X18876Y8787D01*
X18971Y8787D01*
X18971Y8299D01*
X18970Y8257D01*
X18966Y8220D01*
X18959Y8187D01*
X18949Y8160D01*
X18937Y8137D01*
X18921Y8117D01*
X18903Y8099D01*
X18881Y8085D01*
X18856Y8074D01*
X18829Y8065D01*
X18801Y8061D01*
X18770Y8059D01*
X18726Y8062D01*
X18687Y8073D01*
X18653Y8089D01*
X18626Y8113D01*
X18604Y8144D01*
X18589Y8181D01*
X18580Y8224D01*
X18578Y8274D01*
X18578Y8274D01*
X19421Y8071D02*
X19334Y8071D01*
X19334Y8631D01*
X19316Y8616D01*
X19297Y8601D01*
X19275Y8586D01*
X19250Y8571D01*
X19225Y8557D01*
X19201Y8544D01*
X19179Y8534D01*
X19158Y8525D01*
X19158Y8610D01*
X19193Y8629D01*
X19227Y8649D01*
X19258Y8671D01*
X19287Y8694D01*
X19312Y8719D01*
X19334Y8743D01*
X19351Y8767D01*
X19365Y8790D01*
X19421Y8790D01*
X19421Y8071D01*
X19421Y8071D01*
G37*
M02*