<?xml version="1.0" encoding="utf-8" ?>
<svg baseProfile="tiny" height="116.085823934" version="1.2" width="116.085823934" xmlns="http://www.w3.org/2000/svg" xmlns:ev="http://www.w3.org/2001/xml-events" xmlns:xlink="http://www.w3.org/1999/xlink"><defs /><g id="paths" stroke="green"><path d="M 4.893306967,111.192516967 L 111.192516967,111.192516967 L 111.192516967,4.893306967 L 4.893306967,4.893306967 L 4.893306967,111.192516967 Z" fill-opacity="0" stroke-linejoin="round" stroke-width="1.0" /></g><g fill="red" id="top_parts" stroke="red"><line stroke-linecap="round" stroke-width="0.5" x1="123.767" x2="134.0511" y1="30.33" y2="30.33" /><line stroke-linecap="round" stroke-width="0.5" x1="134.0511" x2="134.0511" y1="30.33" y2="85.7558" /><line stroke-linecap="round" stroke-width="0.5" x1="134.0511" x2="123.767" y1="85.7558" y2="85.7558" /><line stroke-linecap="round" stroke-width="0.5" x1="123.767" x2="123.767" y1="85.7558" y2="30.33" /><line stroke-linecap="round" stroke-width="0.5" x1="123.767" x2="134.0511" y1="30.33" y2="30.33" /><line stroke-linecap="round" stroke-width="0.5" x1="134.0511" x2="134.0511" y1="30.33" y2="85.7558" /><line stroke-linecap="round" stroke-width="0.5" x1="134.0511" x2="123.767" y1="85.7558" y2="85.7558" /><line stroke-linecap="round" stroke-width="0.5" x1="123.767" x2="123.767" y1="85.7558" y2="30.33" /><text font-family="monospace" font-size="2" stroke-width="0.1" text-anchor="middle" x="128.909051967" y="58.042911967">J1</text></g><g fill="blue" id="bottom_parts" stroke="blue"><line stroke-linecap="round" stroke-width="0.5" x1="107.1849" x2="92.7392" y1="67.8173" y2="63.9466" /><line stroke-linecap="round" stroke-width="0.5" x1="92.7392" x2="91.0426" y1="63.9466" y2="70.2783" /><line stroke-linecap="round" stroke-width="0.5" x1="91.0426" x2="105.4883" y1="70.2783" y2="74.149" /><line stroke-linecap="round" stroke-width="0.5" x1="105.4883" x2="107.1849" y1="74.149" y2="67.8173" /><text font-family="monospace" font-size="2" stroke-width="0.1" text-anchor="middle" x="99.1137696245" y="69.0478140602">R03</text><line stroke-linecap="round" stroke-width="0.5" x1="26.0568" x2="13.1052" y1="72.7255" y2="80.2031" /><line stroke-linecap="round" stroke-width="0.5" x1="13.1052" x2="16.3828" y1="80.2031" y2="85.88" /><line stroke-linecap="round" stroke-width="0.5" x1="16.3828" x2="29.3344" y1="85.88" y2="78.4024" /><line stroke-linecap="round" stroke-width="0.5" x1="29.3344" x2="26.0568" y1="78.4024" y2="72.7255" /><text font-family="monospace" font-size="2" stroke-width="0.1" text-anchor="middle" x="21.2197884577" y="79.302753967">D08</text><line stroke-linecap="round" stroke-width="0.5" x1="58.0429" x2="32.7374" y1="32.7374" y2="58.0429" /><line stroke-linecap="round" stroke-width="0.5" x1="32.7374" x2="58.0429" y1="58.0429" y2="83.3484" /><line stroke-linecap="round" stroke-width="0.5" x1="58.0429" x2="83.3484" y1="83.3484" y2="58.0429" /><line stroke-linecap="round" stroke-width="0.5" x1="83.3484" x2="58.0429" y1="58.0429" y2="32.7374" /><text font-family="monospace" font-size="2" stroke-width="0.1" text-anchor="middle" x="58.042911967" y="58.042911967">U1</text><line stroke-linecap="round" stroke-width="0.5" x1="20.3719" x2="30.9469" y1="25.0071" y2="35.582" /><line stroke-linecap="round" stroke-width="0.5" x1="30.9469" x2="35.582" y1="35.582" y2="30.9469" /><line stroke-linecap="round" stroke-width="0.5" x1="35.582" x2="25.0071" y1="30.9469" y2="20.3719" /><line stroke-linecap="round" stroke-width="0.5" x1="25.0071" x2="20.3719" y1="20.3719" y2="25.0071" /><text font-family="monospace" font-size="2" stroke-width="0.1" text-anchor="middle" x="27.9769564027" y="27.9769564027">R10</text><line stroke-linecap="round" stroke-width="0.5" x1="78.4024" x2="85.88" y1="29.3344" y2="16.3828" /><line stroke-linecap="round" stroke-width="0.5" x1="85.88" x2="80.2031" y1="16.3828" y2="13.1052" /><line stroke-linecap="round" stroke-width="0.5" x1="80.2031" x2="72.7255" y1="13.1052" y2="26.0568" /><line stroke-linecap="round" stroke-width="0.5" x1="72.7255" x2="78.4024" y1="26.0568" y2="29.3344" /><text font-family="monospace" font-size="2" stroke-width="0.1" text-anchor="middle" x="79.3027504237" y="21.2197884577">D01</text><line stroke-linecap="round" stroke-width="0.5" x1="23.0009" x2="8.0456" y1="54.7654" y2="54.7654" /><line stroke-linecap="round" stroke-width="0.5" x1="8.0456" x2="8.0456" y1="54.7654" y2="61.3205" /><line stroke-linecap="round" stroke-width="0.5" x1="8.0456" x2="23.0009" y1="61.3205" y2="61.3205" /><line stroke-linecap="round" stroke-width="0.5" x1="23.0009" x2="23.0009" y1="61.3205" y2="54.7654" /><text font-family="monospace" font-size="2" stroke-width="0.1" text-anchor="middle" x="15.523227967" y="58.042911967">D09</text><line stroke-linecap="round" stroke-width="0.5" x1="54.7654" x2="54.7654" y1="93.085" y2="108.0402" /><line stroke-linecap="round" stroke-width="0.5" x1="54.7654" x2="61.3205" y1="108.0402" y2="108.0402" /><line stroke-linecap="round" stroke-width="0.5" x1="61.3205" x2="61.3205" y1="108.0402" y2="93.085" /><line stroke-linecap="round" stroke-width="0.5" x1="61.3205" x2="54.7654" y1="93.085" y2="93.085" /><text font-family="monospace" font-size="2" stroke-width="0.1" text-anchor="middle" x="58.042911967" y="100.562595967">D06</text><line stroke-linecap="round" stroke-width="0.5" x1="74.149" x2="70.2783" y1="105.4883" y2="91.0426" /><line stroke-linecap="round" stroke-width="0.5" x1="70.2783" x2="63.9466" y1="91.0426" y2="92.7392" /><line stroke-linecap="round" stroke-width="0.5" x1="63.9466" x2="67.8173" y1="92.7392" y2="107.1849" /><line stroke-linecap="round" stroke-width="0.5" x1="67.8173" x2="74.149" y1="107.1849" y2="105.4883" /><text font-family="monospace" font-size="2" stroke-width="0.1" text-anchor="middle" x="69.0478140602" y="99.1137696245">R05</text><line stroke-linecap="round" stroke-width="0.5" x1="10.5975" x2="25.0432" y1="74.149" y2="70.2783" /><line stroke-linecap="round" stroke-width="0.5" x1="25.0432" x2="23.3466" y1="70.2783" y2="63.9466" /><line stroke-linecap="round" stroke-width="0.5" x1="23.3466" x2="8.9009" y1="63.9466" y2="67.8173" /><line stroke-linecap="round" stroke-width="0.5" x1="8.9009" x2="10.5975" y1="67.8173" y2="74.149" /><text font-family="monospace" font-size="2" stroke-width="0.1" text-anchor="middle" x="16.9720543095" y="69.0478140602">R08</text><line stroke-linecap="round" stroke-width="0.5" x1="105.4883" x2="91.0426" y1="41.9368" y2="45.8075" /><line stroke-linecap="round" stroke-width="0.5" x1="91.0426" x2="92.7392" y1="45.8075" y2="52.1392" /><line stroke-linecap="round" stroke-width="0.5" x1="92.7392" x2="107.1849" y1="52.1392" y2="48.2685" /><line stroke-linecap="round" stroke-width="0.5" x1="107.1849" x2="105.4883" y1="48.2685" y2="41.9368" /><text font-family="monospace" font-size="2" stroke-width="0.1" text-anchor="middle" x="99.1137696245" y="47.0380098738">R02</text><line stroke-linecap="round" stroke-width="0.5" x1="37.6834" x2="30.2058" y1="86.7514" y2="99.7031" /><line stroke-linecap="round" stroke-width="0.5" x1="30.2058" x2="35.8827" y1="99.7031" y2="102.9806" /><line stroke-linecap="round" stroke-width="0.5" x1="35.8827" x2="43.3603" y1="102.9806" y2="90.029" /><line stroke-linecap="round" stroke-width="0.5" x1="43.3603" x2="37.6834" y1="90.029" y2="86.7514" /><text font-family="monospace" font-size="2" stroke-width="0.1" text-anchor="middle" x="36.783069967" y="94.8660354763">D07</text><line stroke-linecap="round" stroke-width="0.5" x1="86.7514" x2="99.7031" y1="78.4024" y2="85.88" /><line stroke-linecap="round" stroke-width="0.5" x1="99.7031" x2="102.9806" y1="85.88" y2="80.2031" /><line stroke-linecap="round" stroke-width="0.5" x1="102.9806" x2="90.029" y1="80.2031" y2="72.7255" /><line stroke-linecap="round" stroke-width="0.5" x1="90.029" x2="86.7514" y1="72.7255" y2="78.4024" /><text font-family="monospace" font-size="2" stroke-width="0.1" text-anchor="middle" x="94.8660354763" y="79.3027504237">D04</text><line stroke-linecap="round" stroke-width="0.5" x1="43.3603" x2="35.8827" y1="26.0568" y2="13.1052" /><line stroke-linecap="round" stroke-width="0.5" x1="35.8827" x2="30.2058" y1="13.1052" y2="16.3828" /><line stroke-linecap="round" stroke-width="0.5" x1="30.2058" x2="37.6834" y1="16.3828" y2="29.3344" /><line stroke-linecap="round" stroke-width="0.5" x1="37.6834" x2="43.3603" y1="29.3344" y2="26.0568" /><text font-family="monospace" font-size="2" stroke-width="0.1" text-anchor="middle" x="36.783069967" y="21.2197884577">D11</text><line stroke-linecap="round" stroke-width="0.5" x1="25.0071" x2="35.582" y1="95.7139" y2="85.139" /><line stroke-linecap="round" stroke-width="0.5" x1="35.582" x2="30.9469" y1="85.139" y2="80.5038" /><line stroke-linecap="round" stroke-width="0.5" x1="30.9469" x2="20.3719" y1="80.5038" y2="91.0788" /><line stroke-linecap="round" stroke-width="0.5" x1="20.3719" x2="25.0071" y1="91.0788" y2="95.7139" /><text font-family="monospace" font-size="2" stroke-width="0.1" text-anchor="middle" x="27.9769564027" y="88.1088675313">R07</text><line stroke-linecap="round" stroke-width="0.5" x1="93.085" x2="108.0402" y1="61.3205" y2="61.3205" /><line stroke-linecap="round" stroke-width="0.5" x1="108.0402" x2="108.0402" y1="61.3205" y2="54.7654" /><line stroke-linecap="round" stroke-width="0.5" x1="108.0402" x2="93.085" y1="54.7654" y2="54.7654" /><line stroke-linecap="round" stroke-width="0.5" x1="93.085" x2="93.085" y1="54.7654" y2="61.3205" /><text font-family="monospace" font-size="2" stroke-width="0.1" text-anchor="middle" x="100.562595967" y="58.042911967">D03</text><line stroke-linecap="round" stroke-width="0.5" x1="67.8173" x2="63.9466" y1="8.9009" y2="23.3466" /><line stroke-linecap="round" stroke-width="0.5" x1="63.9466" x2="70.2783" y1="23.3466" y2="25.0432" /><line stroke-linecap="round" stroke-width="0.5" x1="70.2783" x2="74.149" y1="25.0432" y2="10.5975" /><line stroke-linecap="round" stroke-width="0.5" x1="74.149" x2="67.8173" y1="10.5975" y2="8.9009" /><text font-family="monospace" font-size="2" stroke-width="0.1" text-anchor="middle" x="69.0478140602" y="16.9720543095">R12</text><line stroke-linecap="round" stroke-width="0.5" x1="72.7255" x2="80.2031" y1="90.029" y2="102.9806" /><line stroke-linecap="round" stroke-width="0.5" x1="80.2031" x2="85.88" y1="102.9806" y2="99.7031" /><line stroke-linecap="round" stroke-width="0.5" x1="85.88" x2="78.4024" y1="99.7031" y2="86.7514" /><line stroke-linecap="round" stroke-width="0.5" x1="78.4024" x2="72.7255" y1="86.7514" y2="90.029" /><text font-family="monospace" font-size="2" stroke-width="0.1" text-anchor="middle" x="79.3027504237" y="94.8660354763">D05</text><line stroke-linecap="round" stroke-width="0.5" x1="29.3344" x2="16.3828" y1="37.6834" y2="30.2058" /><line stroke-linecap="round" stroke-width="0.5" x1="16.3828" x2="13.1052" y1="30.2058" y2="35.8827" /><line stroke-linecap="round" stroke-width="0.5" x1="13.1052" x2="26.0568" y1="35.8827" y2="43.3603" /><line stroke-linecap="round" stroke-width="0.5" x1="26.0568" x2="29.3344" y1="43.3603" y2="37.6834" /><text font-family="monospace" font-size="2" stroke-width="0.1" text-anchor="middle" x="21.2197884577" y="36.783069967">D10</text><line stroke-linecap="round" stroke-width="0.5" x1="61.3205" x2="61.3205" y1="23.0009" y2="8.0456" /><line stroke-linecap="round" stroke-width="0.5" x1="61.3205" x2="54.7654" y1="8.0456" y2="8.0456" /><line stroke-linecap="round" stroke-width="0.5" x1="54.7654" x2="54.7654" y1="8.0456" y2="23.0009" /><line stroke-linecap="round" stroke-width="0.5" x1="54.7654" x2="61.3205" y1="23.0009" y2="23.0009" /><text font-family="monospace" font-size="2" stroke-width="0.1" text-anchor="middle" x="58.042911967" y="15.523227967">D12</text><line stroke-linecap="round" stroke-width="0.5" x1="48.2685" x2="52.1392" y1="107.1849" y2="92.7392" /><line stroke-linecap="round" stroke-width="0.5" x1="52.1392" x2="45.8075" y1="92.7392" y2="91.0426" /><line stroke-linecap="round" stroke-width="0.5" x1="45.8075" x2="41.9368" y1="91.0426" y2="105.4883" /><line stroke-linecap="round" stroke-width="0.5" x1="41.9368" x2="48.2685" y1="105.4883" y2="107.1849" /><text font-family="monospace" font-size="2" stroke-width="0.1" text-anchor="middle" x="47.0380098738" y="99.1137696245">R06</text><line stroke-linecap="round" stroke-width="0.5" x1="95.7139" x2="85.139" y1="91.0788" y2="80.5038" /><line stroke-linecap="round" stroke-width="0.5" x1="85.139" x2="80.5038" y1="80.5038" y2="85.139" /><line stroke-linecap="round" stroke-width="0.5" x1="80.5038" x2="91.0788" y1="85.139" y2="95.7139" /><line stroke-linecap="round" stroke-width="0.5" x1="91.0788" x2="95.7139" y1="95.7139" y2="91.0788" /><text font-family="monospace" font-size="2" stroke-width="0.1" text-anchor="middle" x="88.1088675313" y="88.1088675313">R04</text><line stroke-linecap="round" stroke-width="0.5" x1="90.029" x2="102.9806" y1="43.3603" y2="35.8827" /><line stroke-linecap="round" stroke-width="0.5" x1="102.9806" x2="99.7031" y1="35.8827" y2="30.2058" /><line stroke-linecap="round" stroke-width="0.5" x1="99.7031" x2="86.7514" y1="30.2058" y2="37.6834" /><line stroke-linecap="round" stroke-width="0.5" x1="86.7514" x2="90.029" y1="37.6834" y2="43.3603" /><text font-family="monospace" font-size="2" stroke-width="0.1" text-anchor="middle" x="94.8660354763" y="36.783069967">D02</text><line stroke-linecap="round" stroke-width="0.5" x1="41.9368" x2="45.8075" y1="10.5975" y2="25.0432" /><line stroke-linecap="round" stroke-width="0.5" x1="45.8075" x2="52.1392" y1="25.0432" y2="23.3466" /><line stroke-linecap="round" stroke-width="0.5" x1="52.1392" x2="48.2685" y1="23.3466" y2="8.9009" /><line stroke-linecap="round" stroke-width="0.5" x1="48.2685" x2="41.9368" y1="8.9009" y2="10.5975" /><text font-family="monospace" font-size="2" stroke-width="0.1" text-anchor="middle" x="47.0380098738" y="16.9720543095">R11</text><line stroke-linecap="round" stroke-width="0.5" x1="8.9009" x2="23.3466" y1="48.2685" y2="52.1392" /><line stroke-linecap="round" stroke-width="0.5" x1="23.3466" x2="25.0432" y1="52.1392" y2="45.8075" /><line stroke-linecap="round" stroke-width="0.5" x1="25.0432" x2="10.5975" y1="45.8075" y2="41.9368" /><line stroke-linecap="round" stroke-width="0.5" x1="10.5975" x2="8.9009" y1="41.9368" y2="48.2685" /><text font-family="monospace" font-size="2" stroke-width="0.1" text-anchor="middle" x="16.9720543095" y="47.0380098738">R09</text><line stroke-linecap="round" stroke-width="0.5" x1="91.0788" x2="80.5038" y1="20.3719" y2="30.9469" /><line stroke-linecap="round" stroke-width="0.5" x1="80.5038" x2="85.139" y1="30.9469" y2="35.582" /><line stroke-linecap="round" stroke-width="0.5" x1="85.139" x2="95.7139" y1="35.582" y2="25.0071" /><line stroke-linecap="round" stroke-width="0.5" x1="95.7139" x2="91.0788" y1="25.0071" y2="20.3719" /><text font-family="monospace" font-size="2" stroke-width="0.1" text-anchor="middle" x="88.1088675313" y="27.9769564027">R01</text></g></svg>