<?xml version="1.0" encoding="utf-8" ?>
<svg baseProfile="tiny" height="116.085823934" version="1.2" width="116.085823934" xmlns="http://www.w3.org/2000/svg" xmlns:ev="http://www.w3.org/2001/xml-events" xmlns:xlink="http://www.w3.org/1999/xlink"><defs /><g id="paths" stroke="blue"><path d="M 4.893306967,111.192516967 L 111.192516967,111.192516967 L 111.192516967,4.893306967 L 4.893306967,4.893306967 L 4.893306967,111.192516967 Z" fill-opacity="0" stroke-linejoin="round" stroke-width="1.0" /></g><g fill="red" id="holes"><circle cx="104.1059" cy="11.9799" r="3.7205" stroke-width="0.0" /><circle cx="11.9799" cy="11.9799" r="3.7205" stroke-width="0.0" /><circle cx="11.9799" cy="104.1059" r="3.7205" stroke-width="0.0" /><circle cx="104.1059" cy="104.1059" r="3.7205" stroke-width="0.0" /><circle cx="21.2198" cy="79.3028" r="3.7205" stroke-width="0.0" /><circle cx="79.3028" cy="21.2198" r="3.7205" stroke-width="0.0" /><circle cx="15.5232" cy="58.0429" r="3.7205" stroke-width="0.0" /><circle cx="58.0429" cy="100.5626" r="3.7205" stroke-width="0.0" /><circle cx="36.7831" cy="94.866" r="3.7205" stroke-width="0.0" /><circle cx="94.866" cy="79.3028" r="3.7205" stroke-width="0.0" /><circle cx="36.7831" cy="21.2198" r="3.7205" stroke-width="0.0" /><circle cx="100.5626" cy="58.0429" r="3.7205" stroke-width="0.0" /><circle cx="79.3028" cy="94.866" r="3.7205" stroke-width="0.0" /><circle cx="21.2198" cy="36.7831" r="3.7205" stroke-width="0.0" /><circle cx="58.0429" cy="15.5232" r="3.7205" stroke-width="0.0" /><circle cx="94.866" cy="36.7831" r="3.7205" stroke-width="0.0" /><circle cx="128.9091" cy="35.5429" r="1.9488" stroke-width="0.0" /><circle cx="128.9091" cy="44.5429" r="1.9488" stroke-width="0.0" /><circle cx="128.9091" cy="53.5429" r="1.9488" stroke-width="0.0" /><circle cx="128.9091" cy="62.5429" r="1.9488" stroke-width="0.0" /><circle cx="128.9091" cy="71.5429" r="1.9488" stroke-width="0.0" /><circle cx="128.9091" cy="80.5429" r="1.9488" stroke-width="0.0" /></g><g id="rulers" stroke="black" /></svg>